<?xml version="1.0" encoding="UTF-8"?>
<svg version="1.1" xmlns="http://www.w3.org/2000/svg" width="666" height="661">
<path d="M0 0 C219.78 0 439.56 0 666 0 C666 218.13 666 436.26 666 661 C446.22 661 226.44 661 0 661 C0 442.87 0 224.74 0 0 Z " fill="#FDFDFC" transform="translate(0,0)"/>
<path d="M0 0 C3.33716162 1.16687915 6.27448136 2.96697238 9.3125 4.74609375 C22.22616649 12.13649939 35.2787133 19.10567844 49.4296875 23.80078125 C51.85284236 24.64790043 53.94807122 25.57739264 56.1875 26.80859375 C60.72456407 29.25010753 65.65940153 30.55665179 70.59130859 31.97070312 C74.58180426 33.14318331 77.78725862 34.6405703 81.3125 36.80859375 C83.92163052 37.68646823 83.92163052 37.68646823 86.625 38.30859375 C90.49533659 39.30440979 94.1666439 40.46915189 97.89453125 41.921875 C101.29461502 43.16875548 104.73653639 44.2754098 108.1875 45.37109375 C108.83549561 45.5810498 109.48349121 45.79100586 110.15112305 46.00732422 C114.54856091 47.38886126 118.93599047 48.36094501 123.4609375 49.22583008 C130.59269538 50.68332203 137.64155278 52.56066875 144.70117188 54.33007812 C150.55978094 55.77102061 156.24700389 57.06236297 162.26025391 57.57983398 C164.46378978 57.82545772 166.54923526 58.26997522 168.70703125 58.77734375 C173.76674219 59.95987736 178.84872921 60.65343562 184 61.30859375 C185.30807617 61.48455078 185.30807617 61.48455078 186.64257812 61.6640625 C189.86269242 62.08086226 193.0851753 62.45145618 196.3125 62.80859375 C197.07435608 62.89330933 197.83621216 62.9780249 198.62115479 63.06530762 C212.19041749 64.5372076 225.62530366 65.12637785 239.27148438 65.06933594 C242.31140059 65.05859763 245.3507262 65.06932428 248.390625 65.08203125 C266.24621049 65.09533726 283.90203098 63.71781543 301.5625 61.05859375 C302.6774585 60.89157959 303.79241699 60.72456543 304.94116211 60.55249023 C325.84695219 57.27738191 347.46358375 52.57225039 367.26171875 44.94140625 C369.69214872 44.03894186 372.11477822 43.21662922 374.58203125 42.42578125 C401.16571718 33.77924999 426.60747079 19.68624142 448.5703125 2.40625 C451.3125 0.80859375 451.3125 0.80859375 454.1796875 1.0546875 C454.88351562 1.30347656 455.58734375 1.55226563 456.3125 1.80859375 C456.4742562 8.25943116 455.98277467 14.16841668 454.75 20.49609375 C454.49089844 21.8416333 454.49089844 21.8416333 454.2265625 23.21435547 C452.25449147 32.88857127 449.28457869 42.20627347 446.08935547 51.53710938 C445.46012422 53.37694833 444.85351191 55.22451272 444.25390625 57.07421875 C441.46055776 65.36736004 437.34710144 73.06657928 433.3125 80.80859375 C432.69761719 82.00935547 432.69761719 82.00935547 432.0703125 83.234375 C418.26502069 109.18227749 398.47800349 132.80531945 375.3125 150.80859375 C373.89324219 151.91847656 373.89324219 151.91847656 372.4453125 153.05078125 C345.36678201 173.80859375 345.36678201 173.80859375 338.3125 173.80859375 C338.3125 174.46859375 338.3125 175.12859375 338.3125 175.80859375 C333.75022309 178.17120144 329.25718527 180.31450494 324.42163086 182.04956055 C319.64254419 183.76945642 314.89807654 185.56824093 310.18359375 187.45703125 C291.9039336 194.65485403 272.73480567 198.21604546 253.3125 200.80859375 C252.3225 200.94136719 251.3325 201.07414063 250.3125 201.2109375 C235.31649037 202.80208387 219.86817691 202.21312579 204.875 200.93359375 C203.9471167 200.85520264 203.0192334 200.77681152 202.06323242 200.69604492 C197.05584706 200.22103783 192.2538602 199.44127611 187.36157227 198.27734375 C184.43257459 197.6073002 181.46876475 197.20413174 178.5 196.74609375 C170.39601557 195.34309145 162.63434154 192.87539976 154.8125 190.37109375 C153.60746826 189.98751709 152.40243652 189.60394043 151.16088867 189.20874023 C145.63039247 187.39991546 140.36416734 185.52512503 135.23266602 182.77661133 C133.07503701 181.688881 130.88288597 180.85329417 128.62109375 180.00390625 C122.21274132 177.49453035 116.34119748 174.08983952 110.375 170.68359375 C109.25287109 170.05066406 108.13074219 169.41773438 106.97460938 168.765625 C98.87053571 164.18061756 98.87053571 164.18061756 95.3125 161.80859375 C95.3125 161.14859375 95.3125 160.48859375 95.3125 159.80859375 C94.24128906 159.42960937 94.24128906 159.42960937 93.1484375 159.04296875 C81.67694133 154.04986573 72.15920048 143.3834366 63.3125 134.80859375 C62.68456543 134.20257324 62.05663086 133.59655273 61.40966797 132.97216797 C54.18092819 125.96844733 47.29340961 118.9333732 41.3125 110.80859375 C40.52488281 109.75285156 39.73726562 108.69710937 38.92578125 107.609375 C30.89106976 96.69692817 23.94187798 85.26722462 17.8125 73.18359375 C17.47395996 72.52053223 17.13541992 71.8574707 16.78662109 71.17431641 C15.08894901 67.74468472 13.83671057 64.60912036 13.3125 60.80859375 C12.6525 60.80859375 11.9925 60.80859375 11.3125 60.80859375 C7.63355197 50.07419269 4.01022016 39.37654087 1.22265625 28.37109375 C0.57946928 25.85355505 -0.09328384 23.36504087 -0.81640625 20.87109375 C-2.77960414 14.02561067 -4.18925693 7.95862997 -3.6875 0.80859375 C-1.6875 -0.19140625 -1.6875 -0.19140625 0 0 Z " fill="#297931" transform="translate(123.6875,382.19140625)"/>
<path d="M0 0 C-3.12925467 3.12925467 -6.97780369 2.86239665 -11.25 3.4375 C-14.13104112 3.76366676 -14.13104112 3.76366676 -16 6 C-18.32285764 6.36585008 -20.65989957 6.64382072 -23 6.875 C-28.47388688 7.50931585 -33.24229921 8.53963437 -38.27734375 10.80078125 C-41.11129977 12.049023 -43.97568601 13.11289267 -46.88525391 14.16870117 C-52.91928802 16.36232544 -58.73573483 18.6804833 -64.421875 21.68359375 C-66.31946718 22.65251582 -68.25308512 23.55166308 -70.203125 24.41015625 C-86.27486003 31.48937287 -101.31252026 41.01318891 -115 52 C-115.89332031 52.70253906 -116.78664062 53.40507813 -117.70703125 54.12890625 C-133.44346567 66.71355123 -148.78693204 80.93759874 -161 97 C-161.48436523 97.63502441 -161.96873047 98.27004883 -162.46777344 98.92431641 C-176.2790082 116.80288387 -176.2790082 116.80288387 -186 137 C-186.66 137 -187.32 137 -188 137 C-188.24621094 137.80179688 -188.49242187 138.60359375 -188.74609375 139.4296875 C-190.56664216 144.61342971 -192.88639318 149.54797303 -195.16601562 154.54296875 C-195.68905273 155.70119141 -195.68905273 155.70119141 -196.22265625 156.8828125 C-196.53984619 157.57777832 -196.85703613 158.27274414 -197.18383789 158.98876953 C-197.98993253 160.97519121 -198.53362525 162.91024295 -199 165 C-199.66 165 -200.32 165 -201 165 C-201.10957031 165.82757813 -201.21914062 166.65515625 -201.33203125 167.5078125 C-202.08631141 171.45124209 -203.34810853 175.10451546 -204.6875 178.875 C-218.96964625 220.78262452 -223.11173213 268.39589203 -215.1875 312.1875 C-214.92247681 313.70537109 -214.92247681 313.70537109 -214.65209961 315.25390625 C-213.15172404 323.621411 -211.32096261 331.82054814 -209 340 C-208.64292969 341.26328125 -208.28585938 342.5265625 -207.91796875 343.828125 C-203.41820663 359.17957645 -197.09671891 373.91748664 -190.43823242 388.44091797 C-188 393.79631036 -188 393.79631036 -188 396 C-187.34 396 -186.68 396 -186 396 C-185.46632812 397.05316406 -184.93265625 398.10632813 -184.3828125 399.19140625 C-179.20443654 409.27047203 -173.51912241 418.73569897 -167 428 C-166.3090625 428.98742187 -165.618125 429.97484375 -164.90625 430.9921875 C-156.19944546 443.18862402 -146.35513494 454.20256031 -136 465 C-135.46407227 465.55929199 -134.92814453 466.11858398 -134.37597656 466.69482422 C-127.65950975 473.66215718 -120.65783173 480.06327412 -113 486 C-112.12472656 486.69222656 -111.24945313 487.38445312 -110.34765625 488.09765625 C-97.07734601 498.35283289 -82.85151441 507.53041414 -67.86376953 515.06298828 C-65.85994305 516.07041375 -63.86557183 517.09529583 -61.87109375 518.12109375 C-54.70739764 521.78172329 -47.55910919 525.22036085 -40 528 C-39.13246094 528.33644531 -38.26492188 528.67289063 -37.37109375 529.01953125 C-30.69387023 531.55554644 -23.95700781 533.39733851 -17 535 C-17 535.66 -17 536.32 -17 537 C-16.01386719 537.02126953 -16.01386719 537.02126953 -15.0078125 537.04296875 C-8.5717745 537.36564274 -2.87213137 538.51150555 3.25 540.375 C33.13948876 549.06840966 69.56183445 549.31608733 100 543 C101.95669785 542.63103997 103.91375078 542.2639597 105.87109375 541.8984375 C123.43665815 538.52103261 140.44379374 533.79579816 157 527 C158.83244753 526.24783834 160.66572558 525.49769544 162.5 524.75 C163.2528125 524.43546875 164.005625 524.1209375 164.78125 523.796875 C167.16705038 522.94000303 169.50630945 522.43903003 172 522 C172 521.34 172 520.68 172 520 C172.92296875 519.56171875 173.8459375 519.1234375 174.796875 518.671875 C212.0080093 500.70604082 248.09965812 474.12987677 272 440 C272.66386719 439.10796875 273.32773437 438.2159375 274.01171875 437.296875 C283.09588186 425.0894731 291.11996896 412.56666193 298 399 C298.63641373 397.76546771 299.27313066 396.53109168 299.91015625 395.296875 C302.88176642 389.49382495 305.68840113 383.68263541 307.98046875 377.57421875 C308.86835399 375.33239357 309.8433661 373.17539348 310.85546875 370.98828125 C313.39740507 365.30365123 315.25616534 359.4333724 317.125 353.5 C317.47175781 352.42363281 317.81851563 351.34726562 318.17578125 350.23828125 C319.89904442 344.81759518 321.44263344 339.43781036 322.6015625 333.86865234 C323.09373183 331.56040229 323.75422138 329.32079375 324.4375 327.0625 C327.53431847 315.85421793 329.15984189 304.19719938 329.7890625 292.6015625 C330 290 330 290 330.4934082 288.13525391 C331.04734596 285.80043965 331.20887581 283.63076764 331.31640625 281.234375 C331.37924805 279.90019531 331.37924805 279.90019531 331.44335938 278.5390625 C331.48267578 277.61867188 331.52199219 276.69828125 331.5625 275.75 C331.60568359 274.81414062 331.64886719 273.87828125 331.69335938 272.9140625 C331.7991805 270.60951359 331.90126557 268.30486161 332 266 C332.33 266 332.66 266 333 266 C338.80898747 302.40045447 332.89851658 345.82836266 320 380 C319.48583407 381.44352322 318.97631724 382.88871551 318.47265625 384.3359375 C318.2401416 385.00181885 318.00762695 385.6677002 317.76806641 386.35375977 C317.53522949 387.02076904 317.30239258 387.68777832 317.0625 388.375 C314.51450354 395.64014469 311.81652436 402.83406413 309 410 C308.34 410 307.68 410 307 410 C306.73445312 410.85464844 306.46890625 411.70929688 306.1953125 412.58984375 C301.07989129 427.18383954 292.05301283 440.59337589 283 453 C282.56671387 453.5971582 282.13342773 454.19431641 281.68701172 454.80957031 C275.22336061 463.68915065 268.51641312 471.98424475 261 480 C259.80611333 481.36945824 258.61807626 482.74405071 257.4375 484.125 C251.11815186 491.35763389 244.30067384 497.76204774 236.80078125 503.7578125 C234.98805072 505.20900821 233.192327 506.68181775 231.41796875 508.1796875 C220.9432661 517.00544895 209.6376462 524.56936162 197.875 531.5625 C197.17681152 531.98007568 196.47862305 532.39765137 195.75927734 532.82788086 C191.93020818 535.0603459 188.28920821 536.76401321 184 538 C184 538.66 184 539.32 184 540 C180.35506745 541.5734726 176.70717419 543.13984244 173.05639648 544.69970703 C171.81500279 545.23129273 170.5744337 545.76480845 169.3347168 546.30029297 C167.55215191 547.06985843 165.76634771 547.8319069 163.98046875 548.59375 C162.90692139 549.05458984 161.83337402 549.51542969 160.72729492 549.99023438 C158 551 158 551 155 551 C154.67 551.99 154.34 552.98 154 554 C152.19677734 554.82788086 152.19677734 554.82788086 149.8359375 555.46484375 C148.53487061 555.82570068 148.53487061 555.82570068 147.20751953 556.19384766 C146.27278809 556.43925293 145.33805664 556.6846582 144.375 556.9375 C142.94389893 557.32881104 142.94389893 557.32881104 141.48388672 557.72802734 C138.65902801 558.49749398 135.83016535 559.25032475 133 560 C131.59872652 560.37804806 130.19765646 560.75685166 128.796875 561.13671875 C126.36864147 561.79027522 123.93765188 562.43368489 121.50390625 563.06640625 C119.18907789 563.68317769 116.883603 564.33632578 114.58984375 565.02734375 C102.92335597 568.45106386 91.06282207 569.73621669 79 571 C77.72962891 571.14574463 77.72962891 571.14574463 76.43359375 571.29443359 C67.80575093 572.20598679 59.16608355 572.24051078 50.5 572.25 C49.69195923 572.25167175 48.88391846 572.25334351 48.0513916 572.25506592 C30.89269493 572.25718062 13.70967243 571.37846193 -3.05175781 567.44189453 C-5.60043844 566.86381033 -8.16327854 566.49132761 -10.75 566.125 C-16.08343495 565.25505453 -21.06297964 563.85613233 -26.19921875 562.1953125 C-29.96039095 561.0124567 -33.73860406 559.93869377 -37.53662109 558.88232422 C-53.88074185 554.32055864 -68.98094588 548.93566668 -84 541 C-84.66 540.67 -85.32 540.34 -86 540 C-86 539.34 -86 538.68 -86 538 C-86.55179932 537.83854492 -87.10359863 537.67708984 -87.67211914 537.51074219 C-93.40647757 535.73134454 -98.32222188 533.36992331 -103.4375 530.25 C-104.1812085 529.80317871 -104.92491699 529.35635742 -105.69116211 528.89599609 C-111.30494406 525.49307319 -116.72739341 521.91344578 -122 518 C-122.57540527 517.58024902 -123.15081055 517.16049805 -123.74365234 516.72802734 C-137.92317083 506.38392289 -150.85838862 495.31132618 -163.3125 482.9375 C-164.69139404 481.57262451 -164.69139404 481.57262451 -166.09814453 480.18017578 C-172.15644658 474.09341558 -177.67058361 467.73004971 -183 461 C-183.97699962 459.7961725 -184.95473057 458.59293768 -185.93359375 457.390625 C-201.17961239 438.38409914 -214.27544287 417.1957955 -223.47265625 394.59765625 C-224.66974388 391.77791788 -225.95686979 389.1929786 -227.39453125 386.5 C-230.71098837 379.94585705 -232.61496532 372.97002668 -234.625 365.9375 C-235.19872011 363.96218747 -235.7751453 361.98768222 -236.35223389 360.01335144 C-236.90260821 358.12905929 -237.44987258 356.24385966 -237.99707031 354.35864258 C-238.82360509 351.59071685 -239.70389592 348.8618503 -240.6484375 346.1328125 C-257.17297537 297.44828473 -251.6834803 234.45289198 -234.72753906 187.06689453 C-234.00370936 185.01053807 -233.31925696 182.94529914 -232.6484375 180.87109375 C-232.43316406 180.20722656 -232.21789062 179.54335937 -231.99609375 178.859375 C-231.42172403 177.08208003 -230.84757116 175.30471499 -230.2734375 173.52734375 C-224.42826782 157.33658233 -216.01997782 141.74076294 -206.8125 127.25 C-206.2551416 126.37061768 -205.6977832 125.49123535 -205.12353516 124.58520508 C-201.63635301 119.20832373 -197.85987616 114.1737356 -193.79736328 109.21777344 C-192.15136702 107.18677235 -190.59253929 105.11901547 -189.0625 103 C-186.02001233 98.89055775 -182.60968448 95.15332402 -179.1484375 91.39453125 C-177.68324356 89.76150601 -176.27280938 88.07807481 -174.9140625 86.35546875 C-172.57868247 83.48152149 -169.84107307 81.36756089 -167 79 C-166.38125 78.21625 -165.7625 77.4325 -165.125 76.625 C-162.1377742 72.93489754 -158.6233963 70.05222053 -155 67 C-153.68322266 65.86884766 -153.68322266 65.86884766 -152.33984375 64.71484375 C-132.81297603 48.1314608 -110.47973198 31.74214805 -86.24609375 22.88671875 C-83.87572976 21.99335158 -83.87572976 21.99335158 -81.23193359 20.5793457 C-78.20004101 19.09775384 -75.23282865 17.9348624 -72.04296875 16.84375 C-70.37331055 16.26947266 -70.37331055 16.26947266 -68.66992188 15.68359375 C-66.94612305 15.09771484 -66.94612305 15.09771484 -65.1875 14.5 C-63.48110352 13.91412109 -63.48110352 13.91412109 -61.74023438 13.31640625 C-58.4957021 12.20431613 -55.2482041 11.10131019 -52 10 C-51.13729492 9.70343506 -50.27458984 9.40687012 -49.38574219 9.10131836 C-38.86161441 5.51635792 -27.92257468 3.75786333 -17 1.8125 C-16.0085498 1.63340088 -15.01709961 1.45430176 -13.99560547 1.26977539 C-9.27675009 0.44744722 -4.81197244 -0.23572162 0 0 Z " fill="#81BF2F" transform="translate(295,74)"/>
<path d="M0 0 C1.25611084 0.01244751 1.25611084 0.01244751 2.53759766 0.02514648 C9.25406578 0.2079208 14.65916435 1.38712596 20.6875 4.4375 C22.25371094 5.16646484 22.25371094 5.16646484 23.8515625 5.91015625 C31.04854175 9.47493637 36.41517528 13.75802617 42.21484375 19.265625 C48.13280743 24.46371 54.91879111 24.94147768 62.5390625 25.91015625 C65.74619426 26.44733092 68.63411079 27.33259489 71.6875 28.4375 C71.6875 29.0975 71.6875 29.7575 71.6875 30.4375 C72.368125 30.6025 73.04875 30.7675 73.75 30.9375 C79.6250728 33.93753717 83.57847317 39.25724694 85.6875 45.4375 C85.91455078 47.93286133 85.91455078 47.93286133 85.8828125 50.51953125 C85.87314453 51.91655273 85.87314453 51.91655273 85.86328125 53.34179688 C85.83814453 54.78135742 85.83814453 54.78135742 85.8125 56.25 C85.80347656 57.22904297 85.79445313 58.20808594 85.78515625 59.21679688 C85.76167182 61.62395061 85.7288284 64.03059743 85.6875 66.4375 C85.0275 66.4375 84.3675 66.4375 83.6875 66.4375 C83.6875 69.0775 83.6875 71.7175 83.6875 74.4375 C84.945625 74.458125 86.20375 74.47875 87.5 74.5 C88.56154297 74.51740234 88.56154297 74.51740234 89.64453125 74.53515625 C91.89055461 74.52013217 91.89055461 74.52013217 94.6875 73.4375 C101.35474884 72.88113587 108.06308232 72.45330701 113.97265625 75.9765625 C119.20766585 80.43645679 122.58451926 86.7093175 123.6875 93.4375 C124.20967742 105.87096774 124.20967742 105.87096774 122.6875 110.4375 C122.0275 110.4375 121.3675 110.4375 120.6875 110.4375 C120.56632813 111.10136719 120.44515625 111.76523437 120.3203125 112.44921875 C118.77496624 120.59200482 117.93369277 124.71336216 111.09765625 129.6015625 C96.22631239 140.92981471 86.61296723 157.42975221 83.375 175.875 C82.1197835 185.7852331 82.19077876 195.30172337 84.2421875 205.08203125 C84.77419341 207.89606249 84.84189207 210.58124679 84.6875 213.4375 C82.28837497 213.60107671 80.08283155 213.57315141 77.6875 213.4375 C76.75969727 213.41864746 75.83189453 213.39979492 74.87597656 213.38037109 C71.21825164 212.95201529 68.8648744 212.33963947 65.6875 210.4375 C62.11003165 205.33385576 60.81424291 198.80140467 59.1875 192.875 C58.70265719 191.23752119 58.21311162 189.6014271 57.71875 187.96679688 C57.00155057 185.59110763 56.2902864 183.21503444 55.60479736 180.82998657 C54.40837773 176.67944232 53.06420466 172.73436183 51.328125 168.76953125 C46.02543414 156.11180172 53.85287508 139.72105256 58.65039062 127.89111328 C60.743168 122.93998036 63.07088347 118.13551605 65.6875 113.4375 C58.74991578 121.30651913 53.67504833 129.25272149 48.6875 138.4375 C47.36472012 140.77704783 46.02698646 143.10744409 44.6875 145.4375 C41.80106538 143.99428269 41.6229038 141.83028597 40.63232422 138.9140625 C40.38240723 138.15867187 40.13249023 137.40328125 39.875 136.625 C36.1067801 125.59065406 31.58118175 114.93712236 26.7265625 104.33984375 C24.70573332 99.88593623 22.90172749 95.39425787 21.1875 90.8125 C19.64560481 86.74152064 18.02241547 83.08758926 15.734375 79.40234375 C13.2085845 74.66177427 11.53480706 69.47216882 9.6875 64.4375 C11.15604536 71.26026335 12.84109666 78.00342937 14.625 84.75 C16.50377641 91.89196291 18.3445285 99.03810457 20.1015625 106.2109375 C20.70316077 108.62046629 20.70316077 108.62046629 21.8125 111.625 C22.57104131 114.06316851 22.86047696 115.92598625 23.0625 118.4375 C23.55674701 123.83760627 25.15702405 128.84235371 26.75 134.0078125 C27.69922128 137.48038035 28.25145825 140.8674082 28.6875 144.4375 C25.32404272 143.45307348 22.54029529 142.35011987 19.515625 140.5546875 C15.51913477 138.22899553 11.37575951 136.76468358 7 135.3125 C-0.87979483 132.65638938 -0.87979483 132.65638938 -3.64453125 131.2578125 C-5.45137969 130.21684017 -5.45137969 130.21684017 -8.3125 130.4375 C-7.27351563 130.994375 -6.23453125 131.55125 -5.1640625 132.125 C3.09543952 136.61601738 10.56056051 141.2593815 17.6875 147.4375 C18.89007365 148.42543752 20.09465219 149.41093753 21.30078125 150.39453125 C22.57620716 151.44969179 23.850949 152.50567975 25.125 153.5625 C25.72908691 154.05339111 26.33317383 154.54428223 26.95556641 155.05004883 C34.29416187 161.24088713 35.64819479 168.67402968 37.6875 177.75 C39.68939107 186.67932228 39.68939107 186.67932228 42.375 195.41796875 C43.47354661 198.53731189 44.01139061 201.09063034 43.6875 204.4375 C34.93201306 203.89726783 27.26074245 201.95118906 19.16796875 198.6015625 C14.27786158 196.62878198 9.32359469 194.9192721 4.32568359 193.24169922 C-5.32706142 190.00049707 -14.70803215 186.64105473 -23.83984375 182.1328125 C-28.49875123 179.85838523 -33.25691716 177.83718892 -38.03759766 175.83349609 C-41.47005999 174.3649458 -44.44745818 172.84558578 -47.3125 170.4375 C-47.17972656 169.89222656 -47.04695313 169.34695313 -46.91015625 168.78515625 C-45.63460753 163.33847013 -44.84286157 158.00629648 -44.3125 152.4375 C-45.488125 151.921875 -46.66375 151.40625 -47.875 150.875 C-56.78081993 146.31233521 -62.19116025 138.75192726 -65.72070312 129.45996094 C-68.19545334 121.00252249 -67.51936314 110.60435045 -63.703125 102.703125 C-59.91604544 96.53316391 -55.51417304 91.30092952 -49.9375 86.6875 C-46.57247158 83.85031918 -45.03007138 81.92232114 -44.3125 77.4375 C-44.07393785 73.60005735 -43.99353591 69.92093619 -44.8046875 66.1484375 C-47.38634351 52.3663662 -45.36712932 35.57815132 -37.84375 23.58203125 C-28.07675178 9.90325057 -17.50416221 -0.22495736 0 0 Z " fill="#81BF2D" transform="translate(198.3125,213.5625)"/>
<path d="M0 0 C0.58456676 28.74869345 -0.20690754 57.93611778 -11 85 C-11.32226562 85.95261719 -11.64453125 86.90523438 -11.9765625 87.88671875 C-19.05404029 108.17718565 -32.07071489 125.79944053 -47 141 C-47.75192627 141.76812012 -47.75192627 141.76812012 -48.51904297 142.55175781 C-59.40372396 153.51043631 -72.07520242 162.32868455 -86 169 C-78.96987069 167.1684942 -78.96987069 167.1684942 -72.0625 164.9375 C-46.93061277 157.24406513 -19.08052861 161.44342052 4 173 C7.85067392 175.11967848 11.44717219 177.41558512 15 180 C15.75023437 180.52980469 16.50046875 181.05960938 17.2734375 181.60546875 C23.8021056 186.4275201 29.37243819 192.18309966 35 198 C31.04906549 200.4215405 26.73506191 200.93286577 22.25 201.75 C13.26337213 203.45625841 4.42121017 205.56907599 -4.42480469 207.89355469 C-14.41533085 210.47913701 -24.27645806 212.38594676 -34.625 212.3125 C-35.47400879 212.30758545 -36.32301758 212.3026709 -37.19775391 212.29760742 C-51.19913975 212.04419455 -64.052157 209.26656637 -77 204 C-77 203.34 -77 202.68 -77 202 C-77.68320312 201.92007813 -78.36640625 201.84015625 -79.0703125 201.7578125 C-82.7935825 200.79472666 -85.69866767 198.96445585 -88.875 196.875 C-89.49560303 196.47192627 -90.11620605 196.06885254 -90.75561523 195.65356445 C-95.40010692 192.56435793 -99.24674857 189.12644405 -103 185 C-105.39577929 182.4796037 -105.39577929 182.4796037 -108 181 C-112.58291921 181.43633116 -116.67021011 182.81674728 -120.98828125 184.36328125 C-122.34076193 184.8418665 -123.69338775 185.32004174 -125.04614258 185.79785156 C-125.74413971 186.04603638 -126.44213684 186.29422119 -127.1612854 186.54992676 C-159.72266294 198.09244569 -159.72266294 198.09244569 -166 196 C-165.030625 195.48953125 -164.06125 194.9790625 -163.0625 194.453125 C-152.63426325 188.8425656 -143.25499346 182.37280738 -134 175 C-132.77990234 174.04287109 -132.77990234 174.04287109 -131.53515625 173.06640625 C-126.79544158 169.15262206 -123.01410326 164.60140906 -119.20703125 159.7890625 C-117.8627533 158.09027586 -116.49136816 156.41192668 -115.07421875 154.7734375 C-103.41069212 141.10561955 -93.82234771 123.4942766 -86.86889648 106.95776367 C-85.0325196 102.8201109 -82.90856396 98.82300516 -80.8125 94.8125 C-80.08873169 93.42671753 -80.08873169 93.42671753 -79.3503418 92.01293945 C-75.64790934 85.02040899 -71.6386319 78.41965389 -67 72 C-70.65872669 75.53436925 -73.93485299 79.23410586 -77.0625 83.25 C-77.53075195 83.84917236 -77.99900391 84.44834473 -78.48144531 85.06567383 C-86.29709709 95.16627874 -93.60354168 105.63320805 -100.3671875 116.46484375 C-103.37006992 121.12721382 -106.69176708 125.55185161 -110 130 C-110.68835938 130.94617188 -111.37671875 131.89234375 -112.0859375 132.8671875 C-119.9177864 143.52641868 -128.22485876 153.68012202 -137.9375 162.6875 C-138.73462402 163.42709961 -138.73462402 163.42709961 -139.54785156 164.18164062 C-142.51547195 166.86170819 -145.4973565 169.07128838 -149 171 C-149.87636228 119.80696016 -149.87636228 119.80696016 -140.31640625 97.1484375 C-138.9028286 93.767596 -137.7335566 90.34674979 -136.5625 86.875 C-126.8373053 59.73422586 -105.21815929 38.93771106 -80.9375 24.375 C-80.21071045 23.93639648 -79.4839209 23.49779297 -78.73510742 23.04589844 C-78.04779541 22.64661133 -77.3604834 22.24732422 -76.65234375 21.8359375 C-76.04382568 21.48063965 -75.43530762 21.1253418 -74.80834961 20.75927734 C-73 20 -73 20 -69 20 C-69 19.34 -69 18.68 -69 18 C-59.19549392 13.97853001 -49.46297191 10.33666419 -39.19189453 7.68676758 C-35.69589747 6.78014279 -32.33670387 5.78565914 -28.97265625 4.46484375 C-25.05954172 2.95278404 -21.18406919 2.05413929 -17.0625 1.3125 C-16.41087891 1.18294922 -15.75925781 1.05339844 -15.08789062 0.91992188 C-10.00777851 -0.02231678 -5.16411217 -0.10600817 0 0 Z " fill="#81BF2D" transform="translate(466,13)"/>
<path d="M0 0 C3.16790008 1.97993755 4.72743487 3.08306975 5.8046875 6.70703125 C6.15297278 22.08963108 -4.43189503 32.99899042 -14 44 C-15.46830912 45.80442808 -16.92731737 47.61648178 -18.375 49.4375 C-18.98085938 50.19933594 -19.58671875 50.96117187 -20.2109375 51.74609375 C-20.80132813 52.48988281 -21.39171875 53.23367187 -22 54 C-23.33276297 55.6671228 -24.6659501 57.33390684 -26 59 C-25.14019531 58.29875 -24.28039062 57.5975 -23.39453125 56.875 C0.80425502 37.36630199 0.80425502 37.36630199 13.6171875 37.69140625 C16 38 16 38 19.125 39.5625 C21 42 21 42 21.8125 45.3125 C20.62073434 50.72128261 17.38840002 52.82628093 13 56 C9.12519921 58.23870441 5.12743614 60.13330554 1.0625 62 C-0.58335083 62.7731958 -0.58335083 62.7731958 -2.26245117 63.56201172 C-10.0066155 67.16882073 -17.8257074 70.55418406 -25.76953125 73.6953125 C-28.25806699 74.70035596 -30.6308962 75.74682167 -33 77 C-31.64579245 80.06864764 -30.15497952 81.99589454 -27.6875 84.25 C-19.0748408 92.66528576 -16.43594218 102.00352971 -16.28491211 113.92822266 C-16.72886239 127.53784598 -25.27054238 141.20599971 -33 152 C-33.72960937 153.02351562 -34.45921875 154.04703125 -35.2109375 155.1015625 C-37.12137568 157.74936279 -39.04992258 160.38132461 -41 163 C-50.54897858 162.65276442 -60.46707348 159.26646326 -69 155 C-69 155.66 -69 156.32 -69 157 C-68.48695313 157.21914063 -67.97390625 157.43828125 -67.4453125 157.6640625 C-63.97962719 159.55745607 -60.97829702 161.94355079 -57.875 164.375 C-56.92560547 165.09816406 -56.92560547 165.09816406 -55.95703125 165.8359375 C-50.29364526 170.26083356 -50.29364526 170.26083356 -49 174 C-54.37027436 181.67982868 -59.81510632 189.19966761 -65.8359375 196.390625 C-68.68089668 199.821009 -71.38228095 203.35787408 -74.078125 206.90625 C-76.22277429 209.2426972 -78.1417319 210.63106348 -81 212 C-84.8125 211.6875 -84.8125 211.6875 -88 211 C-88 210.34 -88 209.68 -88 209 C-89.07894531 208.81630859 -89.07894531 208.81630859 -90.1796875 208.62890625 C-93.89575524 207.80025403 -97.20352469 206.33101757 -100.6953125 204.83984375 C-103.06095678 203.82880885 -103.06095678 203.82880885 -106 204 C-105.40832031 204.45890625 -104.81664062 204.9178125 -104.20703125 205.390625 C-102.58163304 206.65276129 -100.95799204 207.91716316 -99.3359375 209.18359375 C-97.54752648 210.57424781 -95.74543497 211.94732461 -93.9375 213.3125 C-93.298125 213.869375 -92.65875 214.42625 -92 215 C-92 215.66 -92 216.32 -92 217 C-92.85722656 217.25394531 -93.71445312 217.50789062 -94.59765625 217.76953125 C-95.74105469 218.11371094 -96.88445312 218.45789063 -98.0625 218.8125 C-99.18785156 219.14894531 -100.31320312 219.48539063 -101.47265625 219.83203125 C-104.98519338 220.93111328 -104.98519338 220.93111328 -108.18359375 222.4140625 C-113.27807728 224.65847539 -118.65545839 226.04342185 -124 227.5625 C-125.05445313 227.86607422 -126.10890625 228.16964844 -127.1953125 228.48242188 C-129.2288403 229.06725224 -131.26322908 229.64909955 -133.29858398 230.22753906 C-134.93094617 230.69430761 -136.56134492 231.16813411 -138.18774414 231.65527344 C-141.9220023 232.77056661 -145.09161036 233.19065315 -149 233 C-149.04254356 231.00045254 -149.04080783 228.99958364 -149 227 C-148.67 226.67 -148.34 226.34 -148 226 C-144.18289757 211.09379706 -144.92351053 195.18870351 -149.78125 180.6640625 C-150.11497705 176.59974374 -148.58274093 173.40992801 -147.0625 169.6875 C-146.62647461 168.57665039 -146.62647461 168.57665039 -146.18164062 167.44335938 C-145.46578953 165.62439349 -144.73441265 163.8115512 -144 162 C-142.35 162 -140.7 162 -139 162 C-139 162.66 -139 163.32 -139 164 C-132.40620337 166.29561809 -125.75052102 168.22089072 -119 170 C-124.55176588 164.88866649 -130.08464394 160.01842004 -136.28515625 155.703125 C-138.53700727 153.46666249 -138.8650977 152.1585746 -139 149 C-138.109375 146.23828125 -138.109375 146.23828125 -136.75 143.3125 C-135.03415352 139.46484425 -133.54970548 135.75108875 -132.4375 131.6875 C-131.57999046 128.64988147 -130.6205185 126.08401772 -129 123.375 C-127.40345872 120.68083659 -126.46155776 118.59830258 -125.5 115.6875 C-124 112 -124 112 -122.125 110.375 C-118.62337408 109.75706601 -116.35159709 111.29642891 -113.2890625 112.890625 C-104.04914182 117.90839249 -104.04914182 117.90839249 -94 120 C-94.52207031 119.59910156 -95.04414063 119.19820313 -95.58203125 118.78515625 C-100.97327323 114.62134239 -106.26603236 110.35184631 -111.51953125 106.015625 C-113.64463288 104.28877076 -115.7956714 102.62370126 -118 101 C-114.32024927 87.38492232 -104.68725101 73.76950021 -92.52734375 66.52734375 C-86.38010405 63.49177421 -80.76378595 62.5215045 -74 62.4375 C-73.28932373 62.42283691 -72.57864746 62.40817383 -71.84643555 62.39306641 C-65.14946627 62.51878131 -59.23375879 64.69068771 -53 67 C-53.13631836 65.60430786 -53.13631836 65.60430786 -53.27539062 64.18041992 C-56.2940595 32.87334058 -56.2940595 32.87334058 -56.3125 21.8125 C-56.32023438 20.74068481 -56.32023438 20.74068481 -56.328125 19.6472168 C-56.25803409 14.51368361 -55.5300536 9.49640325 -52.8125 5.0625 C-49.74870747 3.26648369 -47.45956102 3.52281917 -44 4 C-40.84045695 6.54137159 -39.28459114 8.14622659 -38 12 C-36.92740415 25.19780434 -38.35174214 38.08974292 -41 51 C-40.70609375 50.195625 -40.4121875 49.39125 -40.109375 48.5625 C-36.85477756 40.03321017 -33.09882186 31.8134708 -29.0625 23.625 C-28.57297852 22.61566406 -28.08345703 21.60632813 -27.57910156 20.56640625 C-22.10340944 9.6078029 -14.47733011 -4.91103778 0 0 Z " fill="#FD8B06" transform="translate(599,194)"/>
<path d="M0 0 C3.33716162 1.16687915 6.27448136 2.96697238 9.3125 4.74609375 C22.22616649 12.13649939 35.2787133 19.10567844 49.4296875 23.80078125 C51.85284236 24.64790043 53.94807122 25.57739264 56.1875 26.80859375 C60.72456407 29.25010753 65.65940153 30.55665179 70.59130859 31.97070312 C74.58180426 33.14318331 77.78725862 34.6405703 81.3125 36.80859375 C83.92163052 37.68646823 83.92163052 37.68646823 86.625 38.30859375 C90.49533659 39.30440979 94.1666439 40.46915189 97.89453125 41.921875 C101.29461502 43.16875548 104.73653639 44.2754098 108.1875 45.37109375 C108.83549561 45.5810498 109.48349121 45.79100586 110.15112305 46.00732422 C114.54856091 47.38886126 118.93599047 48.36094501 123.4609375 49.22583008 C130.59269538 50.68332203 137.64155278 52.56066875 144.70117188 54.33007812 C150.55978094 55.77102061 156.24700389 57.06236297 162.26025391 57.57983398 C164.46378978 57.82545772 166.54923526 58.26997522 168.70703125 58.77734375 C173.76674219 59.95987736 178.84872921 60.65343562 184 61.30859375 C185.30807617 61.48455078 185.30807617 61.48455078 186.64257812 61.6640625 C189.86269242 62.08086226 193.0851753 62.45145618 196.3125 62.80859375 C197.07435608 62.89330933 197.83621216 62.9780249 198.62115479 63.06530762 C212.19041749 64.5372076 225.62530366 65.12637785 239.27148438 65.06933594 C242.31140059 65.05859763 245.3507262 65.06932428 248.390625 65.08203125 C266.24621049 65.09533726 283.90203098 63.71781543 301.5625 61.05859375 C302.6774585 60.89157959 303.79241699 60.72456543 304.94116211 60.55249023 C327.02847123 57.09228473 349.41122413 51.82919747 370.3125 43.80859375 C372.83030368 42.86143262 375.35012238 41.9238096 377.875 40.99609375 C379.05191406 40.55652344 380.22882813 40.11695313 381.44140625 39.6640625 C384.3125 38.80859375 384.3125 38.80859375 386.3125 39.80859375 C379.8027325 45.15357214 372.67769208 49.07950767 365.25 52.99609375 C364.6401123 53.3205246 364.03022461 53.64495544 363.40185547 53.97921753 C352.28970305 59.89005622 341.00288253 65.38608248 329.60351562 70.72167969 C326.72525051 72.08719932 323.89276896 73.53404873 321.0625 74.99609375 C313.02582872 79.06156529 304.64465733 82.40281148 296.3125 85.80859375 C295.5587207 86.11974121 294.80494141 86.43088867 294.02832031 86.75146484 C272.67678201 95.45170959 250.91476142 102.25964019 228.3125 106.80859375 C226.45433964 107.20010605 224.59626393 107.59202036 222.73828125 107.984375 C220.97187692 108.34501787 219.2049735 108.70322782 217.4375 109.05859375 C216.70313721 109.20997803 215.96877441 109.3613623 215.2121582 109.51733398 C199.89161127 112.43624056 184.2988491 113.16271334 168.73828125 113.12426758 C166.04907677 113.12107783 163.36094741 113.14481542 160.671875 113.16992188 C149.81421567 113.20980827 139.91040488 112.18081604 129.3125 109.80859375 C127.25376001 109.41063981 125.19393077 109.01825918 123.1328125 108.6328125 C96.27899412 103.34401709 69.94641433 94.10867833 48.3125 76.80859375 C47.50039062 76.18597656 46.68828125 75.56335938 45.8515625 74.921875 C27.78815097 60.87572061 5.46715699 40.1938455 0.3125 16.80859375 C-0.3475 17.46859375 -1.0075 18.12859375 -1.6875 18.80859375 C-3.3152833 12.66080504 -3.88940089 7.16847179 -3.6875 0.80859375 C-1.6875 -0.19140625 -1.6875 -0.19140625 0 0 Z " fill="#80BD2C" transform="translate(123.6875,382.19140625)"/>
<path d="M0 0 C3.4375 2 3.4375 2 6 4 C4.52356953 7.38125527 2.58387568 9.69867944 0.0625 12.375 C-2.95987108 15.72708429 -5.52103582 18.66170506 -7 23 C-6.72296114 24.67694316 -6.39655286 26.34723422 -6 28 C6.66646776 29.13619478 17.13089532 25.4300167 27.25390625 17.78515625 C29.83387626 16.62503551 31.35552855 17.12815082 34 18 C35.74609375 19.3828125 35.74609375 19.3828125 37.4375 21.125 C43.70230531 26.85587304 52.58952621 32.40245876 61.3125 32.5 C64.79501213 32.40688298 64.79501213 32.40688298 66 31 C66.95754928 25.56984714 66.23311368 21.7235751 63.1875 17.125 C61.66434452 15.02643023 60.2052828 13.18970962 58.30078125 11.4296875 C57 10 57 10 57 7 C62.19722684 4.34835365 65.13050393 3.56031229 71 5 C74.49828328 6.29936236 76.41738422 8.34564489 79 11 C80.26613503 12.08882072 81.53752062 13.17154923 82.8125 14.25 C94.16849205 24.14684223 101.8072439 36.55877026 103.26757812 51.79101562 C103.93259355 64.47681618 104.25440608 78.97330275 97 90 C94.0859974 91.78712796 91.49617337 92.37394258 88.125 92.78125 C87.15457764 92.90008545 86.18415527 93.0189209 85.18432617 93.14135742 C84.13349854 93.25970947 83.0826709 93.37806152 82 93.5 C80.89567627 93.62673096 79.79135254 93.75346191 78.65356445 93.8840332 C40.96456744 98.06170441 -5.11703952 102.55194587 -42 91 C-50.46109502 79.11022596 -49.45318385 59.21769895 -47.5 45.484375 C-46.84224301 42.86829608 -46.04755509 40.48371933 -45 38 C-44.6596875 37.18015625 -44.319375 36.3603125 -43.96875 35.515625 C-37.36513818 21.14830739 -26.44304247 8.72247302 -12 2 C-10.700625 1.3503125 -10.700625 1.3503125 -9.375 0.6875 C-6.05171918 -0.27450234 -3.44620827 -0.36275877 0 0 Z " fill="#F44A1D" transform="translate(340,340)"/>
<path d="M0 0 C3.16790008 1.97993755 4.72743487 3.08306975 5.8046875 6.70703125 C6.15297278 22.08963108 -4.43189503 32.99899042 -14 44 C-15.46830912 45.80442808 -16.92731737 47.61648178 -18.375 49.4375 C-18.98085938 50.19933594 -19.58671875 50.96117187 -20.2109375 51.74609375 C-20.80132813 52.48988281 -21.39171875 53.23367187 -22 54 C-23.33276297 55.6671228 -24.6659501 57.33390684 -26 59 C-25.14019531 58.29875 -24.28039062 57.5975 -23.39453125 56.875 C0.80425502 37.36630199 0.80425502 37.36630199 13.6171875 37.69140625 C16 38 16 38 19.125 39.5625 C21 42 21 42 21.8125 45.3125 C20.62073434 50.72128261 17.38840002 52.82628093 13 56 C9.12519921 58.23870441 5.12743614 60.13330554 1.0625 62 C-0.03473389 62.51546387 -1.13196777 63.03092773 -2.26245117 63.56201172 C-10.0066155 67.16882073 -17.8257074 70.55418406 -25.76953125 73.6953125 C-28.88110989 74.89356975 -28.88110989 74.89356975 -31.28125 76.1796875 C-34.19911121 77.57230308 -35.93554922 76.92511722 -39 76 C-41.33381833 74.62279979 -43.54402575 73.13810651 -45.75390625 71.5703125 C-47.9683362 69.91850013 -47.9683362 69.91850013 -50.56884766 68.84326172 C-53 67 -53 67 -53.84301758 63.83984375 C-53.94251709 62.55207031 -54.0420166 61.26429688 -54.14453125 59.9375 C-54.23414124 58.88795891 -54.23414124 58.88795891 -54.32556152 57.81721497 C-54.5122318 55.54596051 -54.66366803 53.27402245 -54.8125 51 C-54.92951329 49.44482477 -55.04759768 47.88972976 -55.16674805 46.3347168 C-55.76850504 38.17187115 -56.26060884 29.99939347 -56.3125 21.8125 C-56.31805908 21.09771484 -56.32361816 20.38292969 -56.3293457 19.64648438 C-56.25609822 14.51290008 -55.53027207 9.49675969 -52.8125 5.0625 C-49.74870747 3.26648369 -47.45956102 3.52281917 -44 4 C-40.84045695 6.54137159 -39.28459114 8.14622659 -38 12 C-36.92740415 25.19780434 -38.35174214 38.08974292 -41 51 C-40.70609375 50.195625 -40.4121875 49.39125 -40.109375 48.5625 C-36.85477756 40.03321017 -33.09882186 31.8134708 -29.0625 23.625 C-28.57297852 22.61566406 -28.08345703 21.60632813 -27.57910156 20.56640625 C-22.10340944 9.6078029 -14.47733011 -4.91103778 0 0 Z " fill="#267331" transform="translate(599,194)"/>
<path d="M0 0 C3.74023585 0.6869821 4.7351843 1.60282894 7.0625 4.5625 C7.51660156 7.31152344 7.51660156 7.31152344 7.453125 10.421875 C7.44023437 11.53691406 7.42734375 12.65195312 7.4140625 13.80078125 C7.38054687 14.95964844 7.34703125 16.11851562 7.3125 17.3125 C7.29445313 18.48683594 7.27640625 19.66117187 7.2578125 20.87109375 C7.2106912 23.7690534 7.14491305 26.66536418 7.0625 29.5625 C9.3725 29.5625 11.6825 29.5625 14.0625 29.5625 C14.0625 28.9025 14.0625 28.2425 14.0625 27.5625 C17.45529232 26.85938401 20.85206674 26.17779709 24.25 25.5 C25.20970703 25.30083984 26.16941406 25.10167969 27.15820312 24.89648438 C28.08955078 24.71279297 29.02089844 24.52910156 29.98046875 24.33984375 C30.83406982 24.16702881 31.6876709 23.99421387 32.56713867 23.81616211 C35.29012391 23.53936124 37.42026039 23.89831917 40.0625 24.5625 C40.5575 27.0375 40.5575 27.0375 41.0625 29.5625 C39.81410501 30.668481 38.56370766 31.77220201 37.3125 32.875 C36.26835937 33.79732422 36.26835937 33.79732422 35.203125 34.73828125 C31.74003028 37.68949518 28.86706019 39.85342745 24.5 41.25 C23.35337891 41.62705078 23.35337891 41.62705078 22.18359375 42.01171875 C20.0625 42.5625 20.0625 42.5625 17.0625 42.5625 C17.67738281 43.28695312 18.29226563 44.01140625 18.92578125 44.7578125 C20.13814453 46.20800781 20.13814453 46.20800781 21.375 47.6875 C22.17550781 48.63882813 22.97601563 49.59015625 23.80078125 50.5703125 C27.14541265 54.99516164 29.71190973 58.88016489 29.0625 64.5625 C28.0625 65.5625 28.0625 65.5625 25.7890625 65.74609375 C17.40888242 65.18181228 10.56756676 58.80669056 4.5078125 53.55078125 C2.39444677 51.8324056 0.54470096 50.64196879 -1.9375 49.5625 C-2.84628906 50.23345703 -2.84628906 50.23345703 -3.7734375 50.91796875 C-13.10596597 57.65174699 -21.23355703 62.78757583 -32.9375 62.5625 C-33.24500955 58.98704996 -33.22955949 57.05095681 -31.36328125 53.9296875 C-30.66589844 53.10726562 -29.96851563 52.28484375 -29.25 51.4375 C-28.56550781 50.60992187 -27.88101562 49.78234375 -27.17578125 48.9296875 C-24.90522617 46.52836747 -22.61930685 44.49268934 -19.9375 42.5625 C-19.2775 42.5625 -18.6175 42.5625 -17.9375 42.5625 C-17.9375 41.9025 -17.9375 41.2425 -17.9375 40.5625 C-18.50984375 40.45035156 -19.0821875 40.33820313 -19.671875 40.22265625 C-27.04106981 38.07542535 -34.38162018 31.5943919 -38.9375 25.5625 C-39.71875 22.87890625 -39.71875 22.87890625 -39.9375 20.5625 C-39.6075 20.2325 -39.2775 19.9025 -38.9375 19.5625 C-31.80211395 19.68991761 -25.73678516 21.87352615 -19.14257812 24.39086914 C-14.70597224 26.05868538 -10.6563946 27.06707799 -5.9375 27.5625 C-5.95321045 26.92223877 -5.9689209 26.28197754 -5.98510742 25.62231445 C-6.04767115 22.70663369 -6.08655808 19.79109445 -6.125 16.875 C-6.15013672 15.86759766 -6.17527344 14.86019531 -6.20117188 13.82226562 C-6.32603225 1.21136788 -6.32603225 1.21136788 0 0 Z " fill="#267633" transform="translate(371.9375,302.4375)"/>
<path d="M0 0 C0.66 0 1.32 0 2 0 C1.50013161 7.16478029 -1.34507634 13.39110747 -4 20 C-4.6097382 21.60205723 -5.21500423 23.20583673 -5.8125 24.8125 C-6.204375 25.864375 -6.59625 26.91625 -7 28 C-7.66 28 -8.32 28 -9 28 C-9.26296875 28.70382812 -9.5259375 29.40765625 -9.796875 30.1328125 C-14.96023309 42.43769833 -23.68617953 51.70509907 -33 61 C-33.88429688 61.89589844 -34.76859375 62.79179687 -35.6796875 63.71484375 C-45.59251887 73.24166144 -57.74900922 81.74885342 -70 88 C-70.66 87.67 -71.32 87.34 -72 87 C-71.2265625 86.29875 -70.453125 85.5975 -69.65625 84.875 C-60.99207281 76.9961926 -52.76209342 69.14699248 -45.421875 59.984375 C-43.72972325 57.89920736 -42.0251112 55.85412524 -40.265625 53.828125 C-34.96999617 47.72370922 -30.21877942 41.57861524 -25.828125 34.76953125 C-23.6411231 31.45631683 -21.24218824 28.37111236 -18.7734375 25.265625 C-16.82873397 22.78120199 -14.97328348 20.2444139 -13.125 17.6875 C-11.75007735 15.79161057 -10.37507281 13.89578053 -9 12 C-8.60425781 11.4524707 -8.20851563 10.90494141 -7.80078125 10.34082031 C-6.58207585 8.6598142 -5.35451715 6.98560863 -4.125 5.3125 C-3.38507813 4.29800781 -2.64515625 3.28351563 -1.8828125 2.23828125 C-1.26148438 1.49964844 -0.64015625 0.76101563 0 0 Z " fill="#EEF4EF" transform="translate(535,442)"/>
<path d="M0 0 C3.3 1.65 6.6 3.3 10 5 C10 5.66 10 6.32 10 7 C8.64731864 8.11691991 7.24090443 9.16920843 5.8125 10.1875 C0.55964076 14.17470969 -3.24447088 17.80353063 -4.8125 24.4375 C-4.874375 25.283125 -4.93625 26.12875 -5 27 C7.01189997 25.6285626 16.74781987 20.67386705 26 13 C29.84279221 14.6247435 32.57476905 17.13254162 35.6875 19.875 C41.24627026 24.63430858 46.59618515 28.64050491 54.0625 29.25 C55.0215625 29.12625 55.0215625 29.12625 56 29 C55.64093214 20.5619054 50.94199208 14.71345392 45 9 C45 8.34 45 7.68 45 7 C47.05552955 6.27168645 49.11981533 5.56805302 51.1875 4.875 C52.33605469 4.48054688 53.48460937 4.08609375 54.66796875 3.6796875 C58.31777964 2.93517742 59.77463248 3.2627964 63 5 C59.71536341 7.18975773 56.79303725 7.99806563 53 9 C55.25338016 13.00600917 57.90075737 16.59476643 60.6953125 20.23046875 C62.82865588 23.12389555 63.15867326 24.94854572 63.1875 28.5 C63.20167969 29.2940625 63.21585937 30.088125 63.23046875 30.90625 C63 33 63 33 61 35 C52.17579697 36.32363045 45.33037604 32.5475481 38 28 C35.53109739 25.9043036 33.26092924 23.78197193 31.0625 21.40625 C29.01882954 19.71910928 29.01882954 19.71910928 26.1171875 20.0703125 C22.70372517 21.08836267 20.13770452 22.48107169 17.125 24.375 C7.88458823 29.8965712 1.01499451 32.20135209 -10 31 C-10.66 30.34 -11.32 29.68 -12 29 C-12 19.92681829 -3.77109472 12.26624781 2 6 C0.7934375 5.566875 0.7934375 5.566875 -0.4375 5.125 C-3 4 -3 4 -4 2 C-2.68 2 -1.36 2 0 2 C0 1.34 0 0.68 0 0 Z " fill="#E9E7DF" transform="translate(344,338)"/>
<path d="M0 0 C0.33 0 0.66 0 1 0 C1.83628598 5.08415367 2.14737146 10.01626503 2.1328125 15.171875 C2.13376923 15.93493958 2.13472595 16.69800415 2.13571167 17.48419189 C2.13638852 19.09102461 2.13456899 20.69786013 2.13037109 22.3046875 C2.12504562 24.72923122 2.13031766 27.15358719 2.13671875 29.578125 C2.13987319 37.77083865 1.98957818 45.85344983 1 54 C0.67 54 0.34 54 0 54 C-0.66 57.3 -1.32 60.6 -2 64 C-3.65 63.67 -5.3 63.34 -7 63 C-6.34155331 57.39687191 -5.4807593 51.86691121 -4.5 46.3125 C-3.36566806 39.74695955 -2.572389 33.26259729 -2.2109375 26.6015625 C-2 24 -2 24 -1.5065918 22.13525391 C-0.95265404 19.80043965 -0.79112419 17.63076764 -0.68359375 15.234375 C-0.64169922 14.34492188 -0.59980469 13.45546875 -0.55664062 12.5390625 C-0.49766602 11.15847656 -0.49766602 11.15847656 -0.4375 9.75 C-0.37272461 8.34621094 -0.37272461 8.34621094 -0.30664062 6.9140625 C-0.2008195 4.60951359 -0.09873443 2.30486161 0 0 Z " fill="#7FC536" transform="translate(627,340)"/>
<path d="M0 0 C-3.12925467 3.12925467 -6.97780369 2.86239665 -11.25 3.4375 C-14.13104112 3.76366676 -14.13104112 3.76366676 -16 6 C-18.32285764 6.36585008 -20.65989957 6.64382072 -23 6.875 C-28.464983 7.50828407 -33.22877806 8.53700331 -38.2578125 10.7890625 C-41.88671574 12.39156963 -45.59256734 13.75001417 -49.3125 15.125 C-54.59636742 17.07413763 -54.59636742 17.07413763 -59.79296875 19.2421875 C-62 20 -62 20 -65 19 C-65.33 18.01 -65.66 17.02 -66 16 C-54.49401988 9.65997014 -41.84459467 6.3597943 -29 4 C-28.08992188 3.83081055 -27.17984375 3.66162109 -26.2421875 3.48730469 C-23.16311335 2.91942635 -20.08214292 2.36346928 -17 1.8125 C-16.00806641 1.63323975 -15.01613281 1.45397949 -13.99414062 1.26928711 C-9.27575886 0.44742466 -4.81143609 -0.23569535 0 0 Z " fill="#75BF23" transform="translate(295,74)"/>
<path d="M0 0 C5.57592884 -0.3413834 8.92915428 0.82678041 14 3 C17.71073505 3.50196294 17.71073505 3.50196294 21 3 C21.66 2.01 22.32 1.02 23 0 C23.66 0 24.32 0 25 0 C25.09765625 6.15234375 25.09765625 6.15234375 25 8 C24 9 24 9 20.3125 9.5 C13.27641044 9.47726627 6.88352059 5.5721375 1 2 C0.67 1.34 0.34 0.68 0 0 Z " fill="#EED9D0" transform="translate(381,364)"/>
<path d="M0 0 C2 1 2 1 3.11279297 3.93188477 C4.33350696 8.63144697 4.25040362 13.26286766 4.1953125 18.08984375 C4.1924826 19.03436905 4.18965271 19.97889435 4.18673706 20.95204163 C4.17560684 23.94732724 4.1505156 26.94230586 4.125 29.9375 C4.11496095 31.9772092 4.10583672 34.01692312 4.09765625 36.05664062 C4.07569096 41.0378774 4.04121076 46.01888678 4 51 C3.67 51 3.34 51 3 51 C2.67 40.77 2.34 30.54 2 20 C1.67 24.29 1.34 28.58 1 33 C0.67 33 0.34 33 0 33 C0 22.11 0 11.22 0 0 Z " fill="#DAEDC6" transform="translate(626,327)"/>
<path d="M0 0 C-3.12925467 3.12925467 -6.97780369 2.86239665 -11.25 3.4375 C-14.13104112 3.76366676 -14.13104112 3.76366676 -16 6 C-18.45436723 6.44440022 -20.83904147 6.79133915 -23.3125 7.0625 C-28.51896681 7.65750311 -28.51896681 7.65750311 -33.6796875 8.5546875 C-36.11551544 9.02216963 -38.33569551 9.09946723 -40.8125 9.0625 C-41.60269531 9.05347656 -42.39289063 9.04445313 -43.20703125 9.03515625 C-43.79871094 9.02355469 -44.39039063 9.01195313 -45 9 C-39.30856053 3.30856053 -24.83516359 3.20935666 -17 1.8125 C-16.00911377 1.63348145 -15.01822754 1.45446289 -13.99731445 1.27001953 C-9.27786659 0.4476763 -4.81256384 -0.23575059 0 0 Z " fill="#99D36D" transform="translate(295,74)"/>
<path d="M0 0 C0.33 0 0.66 0 1 0 C1 3.3 1 6.6 1 10 C1.99 9.67 2.98 9.34 4 9 C4 11.64 4 14.28 4 17 C3.67 17 3.34 17 3 17 C2.34 20.3 1.68 23.6 1 27 C-0.65 26.67 -2.3 26.34 -4 26 C-3.30710259 20.13391708 -2.42848067 14.32260413 -1.4375 8.5 C-1.29892578 7.67757813 -1.16035156 6.85515625 -1.01757812 6.0078125 C-0.67988697 4.00495459 -0.34015815 2.00244041 0 0 Z " fill="#86C639" transform="translate(624,377)"/>
<path d="M0 0 C3.22371036 1.61185518 3.73316532 5.02832888 4.9375 8.25 C6.64913762 12.79393823 8.48469271 16.8280855 11 21 C10.75 23.0625 10.75 23.0625 10 25 C9.835 25.66 9.67 26.32 9.5 27 C9 29 8.5 31 8 33 C6.84985216 28.62612264 5.70564375 24.25071268 4.5625 19.875 C4.23701172 18.6375 3.91152344 17.4 3.57617188 16.125 C3.26357422 14.92617188 2.95097656 13.72734375 2.62890625 12.4921875 C2.34088135 11.39245605 2.05285645 10.29272461 1.75610352 9.15966797 C1.02808614 6.11736869 0.47444263 3.09100388 0 0 Z " fill="#E7F3DA" transform="translate(207,277)"/>
<path d="M0 0 C-7.44135118 6.04869607 -15.2107607 11.36157135 -25 12 C-24.67 10.68 -24.34 9.36 -24 8 C-22.35 7.67 -20.7 7.34 -19 7 C-19 6.34 -19 5.68 -19 5 C-16.21142 3.96995707 -13.41969712 2.95069003 -10.625 1.9375 C-9.8309375 1.64294922 -9.036875 1.34839844 -8.21875 1.04492188 C-7.45820313 0.77099609 -6.69765625 0.49707031 -5.9140625 0.21484375 C-5.2123291 -0.04176025 -4.5105957 -0.29836426 -3.78759766 -0.56274414 C-2 -1 -2 -1 0 0 Z " fill="#7BBE2F" transform="translate(510,422)"/>
<path d="M0 0 C6.925017 0.47216025 12.70594873 3.21870978 19 6 C20.41595971 6.60582169 21.83247859 7.21034151 23.25 7.8125 C24.1575 8.204375 25.065 8.59625 26 9 C25.525625 9.61875 25.05125 10.2375 24.5625 10.875 C22.97582559 12.90705546 22.97582559 12.90705546 22 15 C21.41734375 14.57589844 20.8346875 14.15179688 20.234375 13.71484375 C14.43215416 9.56388387 8.49346004 5.87667907 2.2734375 2.3828125 C1.52320313 1.92648437 0.77296875 1.47015625 0 1 C0 0.67 0 0.34 0 0 Z " fill="#EEF6E4" transform="translate(189,343)"/>
<path d="M0 0 C2.58363629 -0.05510125 5.16604361 -0.09418621 7.75 -0.125 C8.46027344 -0.14175781 9.17054688 -0.15851563 9.90234375 -0.17578125 C14.28911425 -0.21460223 18.3694192 0.17861167 22.6875 0.96875 C29.53349282 2.1961496 36.30813299 2.44410444 43.25 2.625 C45.10044922 2.68300781 45.10044922 2.68300781 46.98828125 2.7421875 C49.99204937 2.8353276 52.99582878 2.92114531 56 3 C56 3.33 56 3.66 56 4 C41.55953665 4.21398156 27.22230878 4.15197535 12.8125 3.125 C11.64356201 3.04652832 10.47462402 2.96805664 9.27026367 2.88720703 C8.19752197 2.80325684 7.12478027 2.71930664 6.01953125 2.6328125 C5.07182861 2.55949707 4.12412598 2.48618164 3.14770508 2.41064453 C2.4389624 2.27513184 1.73021973 2.13961914 1 2 C0.67 1.34 0.34 0.68 0 0 Z " fill="#F3634B" transform="translate(324,433)"/>
<path d="M0 0 C0.33 0.66 0.66 1.32 1 2 C3.58605332 2.4683265 3.58605332 2.4683265 6.5625 2.625 C8.08037109 2.73714844 8.08037109 2.73714844 9.62890625 2.8515625 C10.80259766 2.92503906 10.80259766 2.92503906 12 3 C12 3.99 12 4.98 12 6 C8.6346364 7.12178787 5.9796245 7.16771159 2.4375 7.1875 C1.28121094 7.20167969 0.12492187 7.21585937 -1.06640625 7.23046875 C-4 7 -4 7 -6 5 C-6 3.68 -6 2.36 -6 1 C-3 0 -3 0 0 0 Z " fill="#F5E3DC" transform="translate(338,362)"/>
<path d="M0 0 C0.66 0.33 1.32 0.66 2 1 C0.68 2.65 -0.64 4.3 -2 6 C-0.68 6 0.64 6 2 6 C2.33 5.01 2.66 4.02 3 3 C5.97 3.495 5.97 3.495 9 4 C0.69336131 8.29207166 -7.77917338 9.78860856 -17 11 C-15.53922047 8.07844094 -13.10980899 7.50730103 -10.26953125 6.15625 C-7.24424007 4.61496568 -4.47002233 2.76150919 -1.6640625 0.85546875 C-1.11492187 0.57316406 -0.56578125 0.29085937 0 0 Z " fill="#94CD51" transform="translate(317,199)"/>
<path d="M0 0 C0.33 0.66 0.66 1.32 1 2 C-0.19761357 4.69093419 -1.44982258 7.26954233 -2.8125 9.875 C-3.18181641 10.59558594 -3.55113281 11.31617188 -3.93164062 12.05859375 C-4.6250479 13.41055121 -5.32172711 14.76083905 -6.02270508 16.10888672 C-7.0330356 18.06392549 -8.01977597 20.02971965 -9 22 C-9.33 21.01 -9.66 20.02 -10 19 C-11.32 19.33 -12.64 19.66 -14 20 C-12.49998584 15.45734347 -9.93627907 12.01640631 -7 8.3125 C-6.54882812 7.73177734 -6.09765625 7.15105469 -5.6328125 6.55273438 C-3.84063101 4.25948439 -2.05978169 2.05978169 0 0 Z " fill="#E6F2D9" transform="translate(264,326)"/>
<path d="M0 0 C3.3 1.65 6.6 3.3 10 5 C10 5.66 10 6.32 10 7 C7.5 8.625 7.5 8.625 5 10 C5 9.34 5 8.68 5 8 C2.69 9.98 0.38 11.96 -2 14 C-2.66 13.67 -3.32 13.34 -4 13 C-2.02 10.69 -0.04 8.38 2 6 C0.7934375 5.566875 0.7934375 5.566875 -0.4375 5.125 C-3 4 -3 4 -4 2 C-2.68 2 -1.36 2 0 2 C0 1.34 0 0.68 0 0 Z " fill="#ECDDD5" transform="translate(344,338)"/>
<path d="M0 0 C5.0245484 0.62806855 9.34047209 2.12470745 14 4 C14.99 4.391875 15.98 4.78375 17 5.1875 C17.66 5.455625 18.32 5.72375 19 6 C15.25 9 15.25 9 13 9 C12.67 9.66 12.34 10.32 12 11 C10.56145942 9.73034469 9.12420873 8.45922782 7.6875 7.1875 C6.88699219 6.47980469 6.08648437 5.77210938 5.26171875 5.04296875 C3.45016838 3.40662878 1.70318297 1.74727832 0 0 Z " fill="#FDECDC" transform="translate(492,397)"/>
<path d="M0 0 C0.66 0.33 1.32 0.66 2 1 C-0.39622028 3.54097336 -2.81997517 6.05386993 -5.25 8.5625 C-5.93191406 9.28630859 -6.61382813 10.01011719 -7.31640625 10.75585938 C-7.98027344 11.43583984 -8.64414062 12.11582031 -9.328125 12.81640625 C-9.9355957 13.45006104 -10.54306641 14.08371582 -11.16894531 14.73657227 C-13 16 -13 16 -15.22949219 15.69897461 C-16.10589355 15.35298218 -16.10589355 15.35298218 -17 15 C-14.73737364 12.67934614 -12.46356994 10.36996401 -10.1875 8.0625 C-9.54490234 7.40314453 -8.90230469 6.74378906 -8.24023438 6.06445312 C-7.61826172 5.43603516 -6.99628906 4.80761719 -6.35546875 4.16015625 C-5.49924927 3.28822632 -5.49924927 3.28822632 -4.62573242 2.39868164 C-3 1 -3 1 0 0 Z " fill="#85C73D" transform="translate(553,533)"/>
<path d="M0 0 C3.36155381 3.13745022 5.80495225 5.64382315 6.1953125 10.359375 C6.16050781 11.54273438 6.16050781 11.54273438 6.125 12.75 C6.10695313 13.54921875 6.08890625 14.3484375 6.0703125 15.171875 C6.03550781 16.07679688 6.03550781 16.07679688 6 17 C5.67 17 5.34 17 5 17 C5 14.69 5 12.38 5 10 C3.68 11.32 2.36 12.64 1 14 C0.34 13.67 -0.32 13.34 -1 13 C-1.38749213 10.67504723 -1.71758117 8.3400417 -2 6 C-2.33 5.01 -2.66 4.02 -3 3 C-1.68 3.33 -0.36 3.66 1 4 C0.67 2.68 0.34 1.36 0 0 Z " fill="#E7D5CD" transform="translate(401,354)"/>
<path d="M0 0 C0.33 0.66 0.66 1.32 1 2 C-0.42403733 5.00254367 -2.36658957 7.72419412 -4.1875 10.5 C-4.68314453 11.28503906 -5.17878906 12.07007812 -5.68945312 12.87890625 C-6.17736328 13.63042969 -6.66527344 14.38195312 -7.16796875 15.15625 C-7.83735474 16.18975586 -7.83735474 16.18975586 -8.52026367 17.24414062 C-10.20970977 19.24884221 -11.55820142 20.07724624 -14 21 C-14.99 21 -15.98 21 -17 21 C-11.3897584 13.95280278 -5.71689899 6.96085386 0 0 Z " fill="#DBEEC8" transform="translate(399,83)"/>
<path d="M0 0 C-1.64990206 4.29597139 -4.81742807 7.00517646 -8.0625 10.125 C-12.0044894 13.69553366 -12.0044894 13.69553366 -15 18 C-15.66 18 -16.32 18 -17 18 C-15.55524992 13.51882602 -13.24877655 10.7420752 -10.0625 7.3125 C-8.74958984 5.88357422 -8.74958984 5.88357422 -7.41015625 4.42578125 C-3.01288245 0 -3.01288245 0 0 0 Z " fill="#FB8B24" transform="translate(506,262)"/>
<path d="M0 0 C2.54343685 2.53887053 5.08139143 5.08248967 7.60546875 7.640625 C8.45753906 8.50171875 9.30960938 9.3628125 10.1875 10.25 C11.04730469 11.12140625 11.90710938 11.9928125 12.79296875 12.890625 C14.81431066 15.02994238 14.81431066 15.02994238 17 16 C17 16.66 17 17.32 17 18 C17.556875 18.226875 18.11375 18.45375 18.6875 18.6875 C21.63246684 20.35896766 23.68156544 22.55276352 26 25 C20.03193792 24.09122691 16.18350259 18.9964354 12 15 C11.46084961 14.48808105 10.92169922 13.97616211 10.36621094 13.44873047 C8.69183225 11.85142943 7.03127418 10.24105179 5.375 8.625 C4.84197266 8.11348389 4.30894531 7.60196777 3.75976562 7.07495117 C2.44722249 5.77383458 1.21613019 4.39165413 0 3 C0 2.01 0 1.02 0 0 Z " fill="#2A6731" transform="translate(177,504)"/>
<path d="M0 0 C0.66 0.33 1.32 0.66 2 1 C1.38511719 1.59167969 0.77023437 2.18335938 0.13671875 2.79296875 C-0.67152344 3.58316406 -1.47976563 4.37335937 -2.3125 5.1875 C-3.11300781 5.96480469 -3.91351563 6.74210937 -4.73828125 7.54296875 C-6.91942907 9.91247131 -8.39352489 12.22517936 -10 15 C-11.62836738 16.7041054 -13.28769752 18.38025441 -15 20 C-15.99 19.67 -16.98 19.34 -18 19 C-12.20862223 12.44191501 -6.25299712 6.11995462 0 0 Z " fill="#82C438" transform="translate(363,53)"/>
<path d="M0 0 C1.70736328 0.01353516 1.70736328 0.01353516 3.44921875 0.02734375 C6.21637881 0.0505972 8.9830676 0.08327132 11.75 0.125 C11.75 0.455 11.75 0.785 11.75 1.125 C10.47382813 1.17398438 9.19765625 1.22296875 7.8828125 1.2734375 C6.21351928 1.34846191 4.54424954 1.42400988 2.875 1.5 C1.61236328 1.54640625 1.61236328 1.54640625 0.32421875 1.59375 C-0.88427734 1.65175781 -0.88427734 1.65175781 -2.1171875 1.7109375 C-2.86081543 1.7423584 -3.60444336 1.7737793 -4.37060547 1.80615234 C-6.49010974 1.97919551 -6.49010974 1.97919551 -8.25 4.125 C-10.68054175 4.31688488 -12.70708853 4.27476868 -15.0625 3.625 C-18.4582867 2.84882018 -21.77251414 3.0670419 -25.25 3.125 C-25.25 2.795 -25.25 2.465 -25.25 2.125 C-16.75103234 0.42020934 -8.655878 -0.13285291 0 0 Z " fill="#97CF5B" transform="translate(422.25,174.875)"/>
<path d="M0 0 C0 0.66 0 1.32 0 2 C-4.95 3.485 -4.95 3.485 -10 5 C-10 4.34 -10 3.68 -10 3 C-11.12148437 3.34224609 -11.12148437 3.34224609 -12.265625 3.69140625 C-13.25046875 3.97886719 -14.2353125 4.26632813 -15.25 4.5625 C-16.22453125 4.85253906 -17.1990625 5.14257812 -18.203125 5.44140625 C-20.96243932 5.99249836 -22.3912824 5.93789609 -25 5 C-16.59313575 1.62154053 -9.08479269 -0.29305783 0 0 Z " fill="#85C848" transform="translate(259,82)"/>
<path d="M0 0 C0.33 0 0.66 0 1 0 C1.0250466 4.07103519 1.04302089 8.14203946 1.05493164 12.21313477 C1.05990624 13.59302554 1.06668832 14.97291121 1.07543945 16.3527832 C1.12655771 24.63093324 0.96057715 32.77282454 0 41 C-0.33 41 -0.66 41 -1 41 C-1.19436491 38.54203147 -1.3807742 36.08390706 -1.5625 33.625 C-1.64661133 32.57699219 -1.64661133 32.57699219 -1.73242188 31.5078125 C-2.11328125 26.2265625 -2.11328125 26.2265625 -1 24 C-0.84693099 22.18828902 -0.75053339 20.3716206 -0.68359375 18.5546875 C-0.62075195 16.94013672 -0.62075195 16.94013672 -0.55664062 15.29296875 C-0.51732422 14.16503906 -0.47800781 13.03710938 -0.4375 11.875 C-0.39431641 10.73933594 -0.35113281 9.60367187 -0.30664062 8.43359375 C-0.2003396 5.62252232 -0.09830595 2.81136055 0 0 Z " fill="#94C954" transform="translate(465,13)"/>
<path d="M0 0 C0.66 0 1.32 0 2 0 C2 2.64 2 5.28 2 8 C0.5629191 8.05422947 -0.87475462 8.09289723 -2.3125 8.125 C-3.11300781 8.14820313 -3.91351563 8.17140625 -4.73828125 8.1953125 C-7 8 -7 8 -10 6 C-9.16855469 5.72736328 -9.16855469 5.72736328 -8.3203125 5.44921875 C-7.59585937 5.19785156 -6.87140625 4.94648438 -6.125 4.6875 C-5.40570313 4.44386719 -4.68640625 4.20023437 -3.9453125 3.94921875 C-1.66005095 3.03664453 -1.66005095 3.03664453 0 0 Z " fill="#FBF2EE" transform="translate(404,364)"/>
<path d="M0 0 C0.66 0 1.32 0 2 0 C1.979375 0.763125 1.95875 1.52625 1.9375 2.3125 C1.87057159 5.10185786 1.87057159 5.10185786 3 8 C1.87391379 11.99248748 0.05849168 14.24735748 -3 17 C-4 15 -4 15 -3.44140625 13.01171875 C-3.15136719 12.24472656 -2.86132812 11.47773438 -2.5625 10.6875 C-1.3529439 7.2887021 -0.77258676 4.63861181 -1 1 C-0.67 0.67 -0.34 0.34 0 0 Z " fill="#4C984E" transform="translate(537,440)"/>
<path d="M0 0 C0.99 0 1.98 0 3 0 C5.28487759 6.34188464 5.23299776 12.24579268 5.125 18.9375 C5.11597656 20.00291016 5.10695313 21.06832031 5.09765625 22.16601562 C5.07423414 24.77758034 5.04143452 27.38866937 5 30 C4.67 30 4.34 30 4 30 C4 22.74 4 15.48 4 8 C3.01 8 2.02 8 1 8 C0.67 5.36 0.34 2.72 0 0 Z " fill="#F65539" transform="translate(438,382)"/>
<path d="M0 0 C3.3125 -0.1875 3.3125 -0.1875 7 0 C8.02958974 0.96950758 9.02772711 1.97302122 10 3 C12.04948533 4.08455255 14.13566316 5.0046871 16.2578125 5.9375 C18 7 18 7 19 10 C14.37324343 8.6077541 10.35313769 6.70479016 6.125 4.375 C4.97257813 3.74335937 3.82015625 3.11171875 2.6328125 2.4609375 C1.32957031 1.73777344 1.32957031 1.73777344 0 1 C0 0.67 0 0.34 0 0 Z " fill="#447B4A" transform="translate(236,553)"/>
<path d="M0 0 C0.84062397 3.09773244 1.08935201 5.78332751 1 9 C0.01 9.33 -0.98 9.66 -2 10 C-1.81566406 10.71542969 -1.63132813 11.43085938 -1.44140625 12.16796875 C-0.96449211 15.22781608 -1.2565589 17.3083481 -1.9375 20.3125 C-2.22947266 21.63701172 -2.22947266 21.63701172 -2.52734375 22.98828125 C-2.68332031 23.65214844 -2.83929688 24.31601562 -3 25 C-3.66 25 -4.32 25 -5 25 C-4.74224693 22.33149767 -4.46918193 19.66599752 -4.1875 17 C-4.08211914 15.88431641 -4.08211914 15.88431641 -3.97460938 14.74609375 C-3.39430623 9.40730478 -2.05837132 4.96264866 0 0 Z " fill="#8BC946" transform="translate(253,353)"/>
<path d="M0 0 C0.33 0 0.66 0 1 0 C2.03590199 5.05002222 2.10251672 9.87416389 2 15 C1.67 15 1.34 15 1 15 C0.67 19.29 0.34 23.58 0 28 C-0.33 28 -0.66 28 -1 28 C-1.02886338 23.52084672 -1.04675187 19.04171709 -1.0625 14.5625 C-1.07087891 13.28310547 -1.07925781 12.00371094 -1.08789062 10.68554688 C-1.09111328 9.47060547 -1.09433594 8.25566406 -1.09765625 7.00390625 C-1.10289307 5.87799072 -1.10812988 4.7520752 -1.11352539 3.59204102 C-1 1 -1 1 0 0 Z " fill="#B1DE97" transform="translate(627,332)"/>
<path d="M0 0 C0 0.66 0 1.32 0 2 C0.99 2.66 1.98 3.32 3 4 C0.56592995 4.86524753 -1.87143184 5.71742865 -4.3125 6.5625 C-5.00279297 6.80935547 -5.69308594 7.05621094 -6.40429688 7.31054688 C-11.66015625 9.11328125 -11.66015625 9.11328125 -15 8 C-14.39671875 7.67386719 -13.7934375 7.34773437 -13.171875 7.01171875 C-12.37265625 6.57472656 -11.5734375 6.13773438 -10.75 5.6875 C-9.96109375 5.25824219 -9.1721875 4.82898438 -8.359375 4.38671875 C-5.96827026 3.0465516 -5.96827026 3.0465516 -3.828125 1.33203125 C-2 0 -2 0 0 0 Z " fill="#D7EEC3" transform="translate(394,174)"/>
<path d="M0 0 C2.76095941 3.4751508 4.98227854 7.22230423 7.1875 11.0625 C7.55552734 11.68705078 7.92355469 12.31160156 8.30273438 12.95507812 C11 17.6440167 11 17.6440167 11 21 C10.34 21 9.68 21 9 21 C7.67659202 18.63052694 6.36628393 16.25524144 5.0625 13.875 C4.68931641 13.20984375 4.31613281 12.5446875 3.93164062 11.859375 C1.77499602 7.89581194 0.44819092 4.56727887 0 0 Z " fill="#266730" transform="translate(138,445)"/>
<path d="M0 0 C0 0.66 0 1.32 0 2 C-1.98 2.99 -1.98 2.99 -4 4 C-3.67 4.66 -3.34 5.32 -3 6 C-10.0547046 9.25601751 -10.0547046 9.25601751 -14 8.1875 C-14.66 7.795625 -15.32 7.40375 -16 7 C-15.44570313 6.72414063 -14.89140625 6.44828125 -14.3203125 6.1640625 C-12.70678358 5.35458166 -11.09770115 4.53620153 -9.4921875 3.7109375 C-8.62851562 3.27007812 -7.76484375 2.82921875 -6.875 2.375 C-5.57175781 1.70597656 -5.57175781 1.70597656 -4.2421875 1.0234375 C-2 0 -2 0 0 0 Z " fill="#D3D8CC" transform="translate(362,358)"/>
<path d="M0 0 C-1 2 -1 2 -3.66015625 3.0703125 C-9.98319553 5.03038208 -15.3728884 6.51977346 -22 6 C-18.71196932 3.80797954 -15.91745739 2.95741384 -12.125 1.875 C-10.91070312 1.52179687 -9.69640625 1.16859375 -8.4453125 0.8046875 C-5.4558555 0.10646965 -3.04397245 -0.1736106 0 0 Z " fill="#8AC747" transform="translate(441,607)"/>
<path d="M0 0 C0.99 0.33 1.98 0.66 3 1 C4.203125 4.01953125 4.203125 4.01953125 5.25 7.8125 C5.60578125 9.05644531 5.9615625 10.30039062 6.328125 11.58203125 C6.93237053 14.65595472 7.12106606 16.1470306 6 19 C3.53279836 16.53279836 3.65208491 15.40533229 3 12 C2.24219135 9.68175742 1.44039715 7.38312311 0.62109375 5.0859375 C0 3 0 3 0 0 Z " fill="#8CC645" transform="translate(229,375)"/>
<path d="M0 0 C5.17226615 4.6873662 8.98925493 10.31728181 13 16 C12.34 16.66 11.68 17.32 11 18 C9.34648668 15.75530315 7.70214519 13.50479175 6.0625 11.25 C5.59392578 10.61578125 5.12535156 9.9815625 4.64257812 9.328125 C3.9706543 8.4 3.9706543 8.4 3.28515625 7.453125 C2.87144775 6.88754883 2.45773926 6.32197266 2.03149414 5.73925781 C0.90789893 3.84470343 0.4304947 2.15041371 0 0 Z " fill="#266330" transform="translate(154,475)"/>
<path d="M0 0 C1.98 0 3.96 0 6 0 C6 0.66 6 1.32 6 2 C4.68 2 3.36 2 2 2 C4.12741392 6.70270446 6.62060825 10.16393369 10 14 C6.67002318 12.56759312 4.6007104 10.81763476 2.1875 8.125 C1.56230469 7.44695312 0.93710937 6.76890625 0.29296875 6.0703125 C-1 4 -1 4 -0.69921875 1.7421875 C-0.46847656 1.16726563 -0.23773438 0.59234375 0 0 Z " fill="#306C39" transform="translate(333,322)"/>
<path d="M0 0 C0 0.33 0 0.66 0 1 C-7.41148455 2.28297723 -14.47280398 3.25515919 -22 3 C-22 2.67 -22 2.34 -22 2 C-20.35 1.67 -18.7 1.34 -17 1 C-17 0.67 -17 0.34 -17 0 C-11.1314592 -1.14819277 -5.9114744 -0.77313045 0 0 Z " fill="#8DCA4A" transform="translate(398,641)"/>
<path d="M0 0 C-4.97190676 2.2787906 -9.66291658 3.79485213 -15 5 C-16.3303125 5.3403125 -16.3303125 5.3403125 -17.6875 5.6875 C-20.3532822 6.04774084 -22.40885703 5.66629391 -25 5 C-21.45950636 2.95024052 -17.9284189 2.23904102 -13.9375 1.4375 C-2.70071963 -0.83815437 -2.70071963 -0.83815437 0 0 Z " fill="#94CA5A" transform="translate(472,435)"/>
<path d="M0 0 C4.29601124 0.48179565 6.33089939 2.99554557 9.25 6 C10.14203125 6.9075 11.0340625 7.815 11.953125 8.75 C14 11 14 11 14 12 C11.03 12 8.06 12 5 12 C6.32 11.67 7.64 11.34 9 11 C6.36113346 6.7973607 3.63559661 3.43361902 0 0 Z " fill="#74BC28" transform="translate(487,200)"/>
<path d="M0 0 C5.78159553 -0.36134972 9.72006588 0.54209963 15 3 C15.33 3.99 15.66 4.98 16 6 C14.26982492 5.54548816 12.54090123 5.08621143 10.8125 4.625 C9.84957031 4.36976563 8.88664063 4.11453125 7.89453125 3.8515625 C5.17789793 3.05233704 2.60862825 2.0968638 0 1 C0 0.67 0 0.34 0 0 Z " fill="#87C23E" transform="translate(233,624)"/>
<path d="M0 0 C-4.02742813 4.48770563 -6.82439074 5.37701449 -12.875 5.8125 C-14.91587593 5.89696578 -16.9576489 5.96666786 -19 6 C-15.78117751 3.85411834 -12.54876914 2.60197657 -8.9375 1.3125 C-8.30005859 1.07466797 -7.66261719 0.83683594 -7.00585938 0.59179688 C-2.24081277 -1.12040638 -2.24081277 -1.12040638 0 0 Z " fill="#93C863" transform="translate(510,422)"/>
<path d="M0 0 C0.66 0.33 1.32 0.66 2 1 C2 1.66 2 2.32 2 3 C0.02 3.66 -1.96 4.32 -4 5 C-4 5.66 -4 6.32 -4 7 C-5.32 7.33 -6.64 7.66 -8 8 C-8.66 7.01 -9.32 6.02 -10 5 C-8.38007835 4.13624104 -6.75388139 3.28424146 -5.125 2.4375 C-4.22007812 1.96183594 -3.31515625 1.48617187 -2.3828125 0.99609375 C-1.20332031 0.50302734 -1.20332031 0.50302734 0 0 Z " fill="#3B8840" transform="translate(466,551)"/>
<path d="M0 0 C2.3125 0.1875 2.3125 0.1875 5 1 C8 5.03448276 8 5.03448276 8 8 C4.11137013 6.73882275 2.10624401 5.54735833 0 2 C0 1.34 0 0.68 0 0 Z " fill="#F2F1EE" transform="translate(394,350)"/>
<path d="M0 0 C0.33 1.65 0.66 3.3 1 5 C0.34 5 -0.32 5 -1 5 C-1 3.68 -1 2.36 -1 1 C-1.99 1.33 -2.98 1.66 -4 2 C-5.89470816 2.0685495 -7.7916834 2.08480372 -9.6875 2.0625 C-10.68136719 2.05347656 -11.67523438 2.04445313 -12.69921875 2.03515625 C-13.83810547 2.01775391 -13.83810547 2.01775391 -15 2 C-9.91958167 -0.67677955 -5.62417505 -1.48875222 0 0 Z " fill="#498451" transform="translate(412,327)"/>
<path d="M0 0 C-0.33 0.99 -0.66 1.98 -1 3 C-5.29 3.66 -9.58 4.32 -14 5 C-12.6045933 2.20918661 -10.98580959 1.96096994 -8.125 0.8125 C-7.24070312 0.44769531 -6.35640625 0.08289063 -5.4453125 -0.29296875 C-3 -1 -3 -1 0 0 Z " fill="#7CC942" transform="translate(314,205)"/>
<path d="M0 0 C0 0.33 0 0.66 0 1 C-0.66386719 1.09796875 -1.32773437 1.1959375 -2.01171875 1.296875 C-7.37285726 2.20474663 -11.02036413 3.02036413 -15 7 C-15 3 -15 3 -13.125 0.6875 C-8.61745611 -1.7465737 -4.91414101 -0.87786597 0 0 Z " fill="#317A3B" transform="translate(597,195)"/>
<path d="M0 0 C1.5625 1.1875 1.5625 1.1875 3 3 C2.68960041 6.8282616 1.2606282 10.38619915 0 14 C-0.66 14 -1.32 14 -2 14 C-1.43393721 9.30976546 -0.81462495 4.65499974 0 0 Z " fill="#8EC847" transform="translate(622,389)"/>
<path d="M0 0 C0.99 0 1.98 0 3 0 C3 2.64 3 5.28 3 8 C0.03 7.505 0.03 7.505 -3 7 C-1.125 1.125 -1.125 1.125 0 0 Z " fill="#EBE0D7" transform="translate(336,356)"/>
<path d="M0 0 C0.33 0.66 0.66 1.32 1 2 C-0.21484375 4.6015625 -0.21484375 4.6015625 -1.9375 7.625 C-2.50339844 8.62789063 -3.06929688 9.63078125 -3.65234375 10.6640625 C-4.09707031 11.43492187 -4.54179687 12.20578125 -5 13 C-5.99 12.34 -6.98 11.68 -8 11 C-6.63629701 8.00779732 -5.05091917 5.70973471 -2.875 3.25 C-2.33617187 2.63640625 -1.79734375 2.0228125 -1.2421875 1.390625 C-0.62730469 0.70226562 -0.62730469 0.70226562 0 0 Z " fill="#D9EDC4" transform="translate(264,326)"/>
<path d="M0 0 C6.23440168 1.58960332 12.16287645 3.27600901 18 6 C18 6.33 18 6.66 18 7 C15.36 6.67 12.72 6.34 10 6 C10 5.34 10 4.68 10 4 C8.72125 3.855625 7.4425 3.71125 6.125 3.5625 C3.74307106 3.29357254 2.15547309 3.07773654 0 2 C0 1.34 0 0.68 0 0 Z " fill="#FD8821" transform="translate(485,308)"/>
<path d="M0 0 C1.44926837 4.45552099 0.1032744 6.86856813 -2 11 C-3.5625 12.9375 -3.5625 12.9375 -5 14 C-5.66 14 -6.32 14 -7 14 C-5.53967505 8.68972746 -3.01679014 4.53669968 0 0 Z " fill="#8FCC4E" transform="translate(86,205)"/>
<path d="M0 0 C-0.99 0.66 -1.98 1.32 -3 2 C-2.67 3.32 -2.34 4.64 -2 6 C-6 6 -6 6 -9 5 C-8.34 4.67 -7.68 4.34 -7 4 C-8.32 3.34 -9.64 2.68 -11 2 C-9.54494642 1.47007308 -8.08581873 0.9513211 -6.625 0.4375 C-5.81289062 0.14746094 -5.00078125 -0.14257812 -4.1640625 -0.44140625 C-2 -1 -2 -1 0 0 Z " fill="#8DCB4B" transform="translate(233,89)"/>
<path d="M0 0 C0.33 1.32 0.66 2.64 1 4 C4.63 4 8.26 4 12 4 C8.52630934 5.73684533 6.92380063 6.30084112 3.25 6.625 C2.45078125 6.69976562 1.6515625 6.77453125 0.828125 6.8515625 C-0.07679688 6.92503906 -0.07679688 6.92503906 -1 7 C-1.04254356 5.00045254 -1.04080783 2.99958364 -1 1 C-0.67 0.67 -0.34 0.34 0 0 Z " fill="#FC9A3B" transform="translate(451,420)"/>
<path d="M0 0 C5.63797249 -0.34518199 9.11239987 0.36069593 14 3 C14.33 3.99 14.66 4.98 15 6 C4.44191344 2.92482916 4.44191344 2.92482916 0 1 C0 0.67 0 0.34 0 0 Z " fill="#92C64F" transform="translate(197,345)"/>
<path d="M0 0 C4.97306516 0.49730652 8.63799813 1.55302334 13 4 C12.67 4.99 12.34 5.98 12 7 C7.69235185 5.43358249 3.93828536 3.31663844 0 1 C0 0.67 0 0.34 0 0 Z " fill="#CDE7AE" transform="translate(189,343)"/>
<path d="M0 0 C0.33 0 0.66 0 1 0 C-0.14445541 11.17670286 -0.14445541 11.17670286 -1 14 C-1.99 14.66 -2.98 15.32 -4 16 C-3.47606294 10.13190493 -2.23891142 5.45126259 0 0 Z " fill="#91C751" transform="translate(158,242)"/>
<path d="M0 0 C0.66 0.33 1.32 0.66 2 1 C2 1.66 2 2.32 2 3 C0.75823305 3.70226141 -0.49385599 4.38629109 -1.75 5.0625 C-2.79414063 5.63677734 -2.79414063 5.63677734 -3.859375 6.22265625 C-6.36140628 7.1312406 -7.5332355 6.88336837 -10 6 C-8.3811004 4.96951963 -6.75467511 3.95085322 -5.125 2.9375 C-4.22007812 2.36902344 -3.31515625 1.80054688 -2.3828125 1.21484375 C-1.20332031 0.61349609 -1.20332031 0.61349609 0 0 Z " fill="#8DC94D" transform="translate(490,582)"/>
<path d="M0 0 C3.13671875 0.6796875 3.13671875 0.6796875 6.6875 1.875 C7.86699219 2.26429688 9.04648437 2.65359375 10.26171875 3.0546875 C11.61716797 3.52261719 11.61716797 3.52261719 13 4 C13 4.33 13 4.66 13 5 C7.06997733 5.37851209 2.52760359 4.10575375 -3 2 C-2.01 1.34 -1.02 0.68 0 0 Z " fill="#37743F" transform="translate(277,569)"/>
<path d="M0 0 C0.66 0 1.32 0 2 0 C2.33 3.63 2.66 7.26 3 11 C0.69 11 -1.62 11 -4 11 C-3.34 10.34 -2.68 9.68 -2 9 C-1.01 9 -0.02 9 1 9 C0.67 6.03 0.34 3.06 0 0 Z " fill="#8CCA3C" transform="translate(280,416)"/>
<path d="M0 0 C0.66 0.66 1.32 1.32 2 2 C1.73441476 5.85098598 -0.56043348 8.16695501 -3 11 C-3.99 10.67 -4.98 10.34 -6 10 C-4.02 6.7 -2.04 3.4 0 0 Z " fill="#4A9650" transform="translate(526,470)"/>
<path d="M0 0 C0.33 0.66 0.66 1.32 1 2 C-1.35264864 6.99937836 -5.32444324 10.94178253 -9 15 C-9 10.9255567 -6.90830751 8.88254967 -4.5 5.8125 C-3.85611328 4.97428711 -3.85611328 4.97428711 -3.19921875 4.11914062 C-2.13921945 2.74114153 -1.07043812 1.36990593 0 0 Z " fill="#D0E2CF" transform="translate(535,442)"/>
<path d="M0 0 C0.66 0.33 1.32 0.66 2 1 C-1.42388092 4.82669043 -4.00724943 6.72278474 -9 8 C-9.33 7.34 -9.66 6.68 -10 6 C-8.3811004 4.96951963 -6.75467511 3.95085322 -5.125 2.9375 C-4.22007812 2.36902344 -3.31515625 1.80054688 -2.3828125 1.21484375 C-1.20332031 0.61349609 -1.20332031 0.61349609 0 0 Z " fill="#378838" transform="translate(505,425)"/>
<path d="M0 0 C1.65 0 3.3 0 5 0 C4.01 0.495 4.01 0.495 3 1 C2.67 1.99 2.34 2.98 2 4 C1 7 1 7 -1 8 C-2.13350534 10.01669827 -2.13350534 10.01669827 -3 12 C-4 10 -4 10 -3.22265625 7.6171875 C-2.83980469 6.71226562 -2.45695312 5.80734375 -2.0625 4.875 C-1.68222656 3.96492188 -1.30195313 3.05484375 -0.91015625 2.1171875 C-0.60980469 1.41851562 -0.30945313 0.71984375 0 0 Z " fill="#FBA34C" transform="translate(455,356)"/>
<path d="M0 0 C3.19839985 1.59919993 3.93172623 4.51633214 5.3125 7.69921875 C6 10 6 10 5.25 13.0625 C4.8375 13.701875 4.425 14.34125 4 15 C3.67 15 3.34 15 3 15 C2.49363393 13.25183142 1.99515381 11.50137737 1.5 9.75 C1.2215625 8.77546875 0.943125 7.8009375 0.65625 6.796875 C0 4 0 4 0 0 Z " fill="#C8E6AA" transform="translate(207,277)"/>
<path d="M0 0 C0.33 0.66 0.66 1.32 1 2 C1.66 2.33 2.32 2.66 3 3 C1.3811004 4.03048037 -0.24532489 5.04914678 -1.875 6.0625 C-2.77992188 6.63097656 -3.68484375 7.19945312 -4.6171875 7.78515625 C-5.40351563 8.18605469 -6.18984375 8.58695313 -7 9 C-7.66 8.67 -8.32 8.34 -9 8 C-6.03 5.36 -3.06 2.72 0 0 Z " fill="#C5DDC7" transform="translate(472,521)"/>
<path d="M0 0 C2 3 2 3 2 8 C-1.3 7.67 -4.6 7.34 -8 7 C-8 6.67 -8 6.34 -8 6 C-6.02 6 -4.04 6 -2 6 C-1.67 5.01 -1.34 4.02 -1 3 C-0.67 2.01 -0.34 1.02 0 0 Z " fill="#9FD167" transform="translate(240,410)"/>
<path d="M0 0 C0.99 0 1.98 0 3 0 C2.03644647 11.52164009 2.03644647 11.52164009 1 17 C0.67 17 0.34 17 0 17 C-0.19658808 15.58456585 -0.38187546 14.16755969 -0.5625 12.75 C-0.66691406 11.96109375 -0.77132813 11.1721875 -0.87890625 10.359375 C-1.0017709 7.96549602 -0.61963571 6.29494706 0 4 C0 2.68 0 1.36 0 0 Z " fill="#99CD5E" transform="translate(461,58)"/>
<path d="M0 0 C4.19469571 0.59924224 8.00999834 1.57499941 12 3 C9.86640881 4.29539465 8.52392246 5.03274515 6 4.875 C3.40478086 3.73959163 1.88335517 2.08514322 0 0 Z " fill="#FDD2A9" transform="translate(492,397)"/>
<path d="M0 0 C0 0.99 0 1.98 0 3 C-2.75 5.25 -2.75 5.25 -6 7 C-8.375 6.75 -8.375 6.75 -10 6 C-9.34 5.34 -8.68 4.68 -8 4 C-7.01 4 -6.02 4 -5 4 C-5 3.34 -5 2.68 -5 2 C-3.35 1.34 -1.7 0.68 0 0 Z " fill="#F7EFEC" transform="translate(367,356)"/>
<path d="M0 0 C0.66 0.33 1.32 0.66 2 1 C1.375 2.9375 1.375 2.9375 0 5 C-5.18918919 6.40540541 -5.18918919 6.40540541 -8 5 C-6.71475739 4.13619741 -5.42157581 3.28419631 -4.125 2.4375 C-3.04605469 1.72400391 -3.04605469 1.72400391 -1.9453125 0.99609375 C-1.30335938 0.66738281 -0.66140625 0.33867187 0 0 Z " fill="#F4694E" transform="translate(326,343)"/>
<path d="M0 0 C1 3 1 3 0.22265625 5.04296875 C-0.16019531 5.75066406 -0.54304687 6.45835937 -0.9375 7.1875 C-1.31777344 7.90292969 -1.69804687 8.61835938 -2.08984375 9.35546875 C-2.54037109 10.16951172 -2.54037109 10.16951172 -3 11 C-3.99 11 -4.98 11 -6 11 C-4.74194623 6.49197399 -3.09592835 3.5087188 0 0 Z " fill="#8AC948" transform="translate(165,231)"/>
<path d="M0 0 C0.33 0.99 0.66 1.98 1 3 C-1.85276137 5.93200474 -4.65079784 8.64315404 -8 11 C-8.66 10.34 -9.32 9.68 -10 9 C-6.7 6.03 -3.4 3.06 0 0 Z " fill="#88C642" transform="translate(337,183)"/>
<path d="M0 0 C3.3 0.99 6.6 1.98 10 3 C6.77208445 5.1519437 5.71599191 5.20086443 2 5 C1.34 3.35 0.68 1.7 0 0 Z " fill="#8FCA4D" transform="translate(186,412)"/>
<path d="M0 0 C0 0.99 0 1.98 0 3 C-2.97 3 -5.94 3 -9 3 C-9.33 2.34 -9.66 1.68 -10 1 C-6.61981469 -0.04005702 -3.5219721 -0.08004482 0 0 Z " fill="#F8F5F2" transform="translate(350,365)"/>
<path d="M0 0 C3 2 3 2 3.6875 5.125 C3.790625 6.07375 3.89375 7.0225 4 8 C4.66 8 5.32 8 6 8 C5.67 8.66 5.34 9.32 5 10 C3.02 8.35 1.04 6.7 -1 5 C-0.67 3.35 -0.34 1.7 0 0 Z " fill="#F99230" transform="translate(461,342)"/>
<path d="M0 0 C6.75 0.875 6.75 0.875 9 2 C9 2.66 9 3.32 9 4 C10.65 4.33 12.3 4.66 14 5 C10.98968256 5.93423645 10.13349732 6.04449911 7 5 C7 4.34 7 3.68 7 3 C5.824375 2.814375 5.824375 2.814375 4.625 2.625 C2 2 2 2 0 0 Z " fill="#F8973A" transform="translate(504,400)"/>
<path d="M0 0 C0.66 0.99 1.32 1.98 2 3 C0.35 5.97 -1.3 8.94 -3 12 C-3.66 12 -4.32 12 -5 12 C-3.68938409 7.76570244 -2.05643741 3.92592596 0 0 Z " fill="#8DCA4C" transform="translate(78,219)"/>
<path d="M0 0 C1.1875 1.625 1.1875 1.625 2 4 C0.625 7.25 0.625 7.25 -1 10 C-1.66 9.67 -2.32 9.34 -3 9 C-1.125 2.25 -1.125 2.25 0 0 Z " fill="#F25438" transform="translate(300,368)"/>
<path d="M0 0 C2.3125 0.1875 2.3125 0.1875 4 1 C1.75 3.5625 1.75 3.5625 -1 6 C-3.3125 5.8125 -3.3125 5.8125 -5 5 C-2.75 2.4375 -2.75 2.4375 0 0 Z " fill="#83C43B" transform="translate(148,134)"/>
<path d="M0 0 C0.66 0.33 1.32 0.66 2 1 C-1.3 3.64 -4.6 6.28 -8 9 C-8.66 8.67 -9.32 8.34 -10 8 C-8.89764064 7.03958829 -7.79303376 6.08175593 -6.6875 5.125 C-5.76517578 4.32449219 -5.76517578 4.32449219 -4.82421875 3.5078125 C-3 2 -3 2 0 0 Z " fill="#76BB2B" transform="translate(185,119)"/>
<path d="M0 0 C1 3 1 3 -0.4375 6.1875 C-1.2109375 7.5796875 -1.2109375 7.5796875 -2 9 C-4 7.625 -4 7.625 -6 6 C-6 5.34 -6 4.68 -6 4 C-4.36368108 2.95107762 -2.69514137 1.95093297 -1 1 C-0.67 0.67 -0.34 0.34 0 0 Z " fill="#F2F9EC" transform="translate(387,101)"/>
<path d="M0 0 C0.66 0.33 1.32 0.66 2 1 C1.1875 2.9375 1.1875 2.9375 0 5 C-0.99 5.33 -1.98 5.66 -3 6 C-3.33 5.67 -3.66 5.34 -4 5 C-4.66 5.66 -5.32 6.32 -6 7 C-6.66 6.34 -7.32 5.68 -8 5 C-6.71475739 4.13619741 -5.42157581 3.28419631 -4.125 2.4375 C-3.04605469 1.72400391 -3.04605469 1.72400391 -1.9453125 0.99609375 C-1.30335938 0.66738281 -0.66140625 0.33867187 0 0 Z " fill="#559858" transform="translate(554,397)"/>
<path d="M0 0 C-0.33 0.33 -0.66 0.66 -1 1 C-0.01 1.66 0.98 2.32 2 3 C-4.625 3.25 -4.625 3.25 -8 1 C-2.25 -1.125 -2.25 -1.125 0 0 Z " fill="#FAFAF8" transform="translate(402,369)"/>
<path d="M0 0 C0.33 2.31 0.66 4.62 1 7 C-0.98 6.34 -2.96 5.68 -5 5 C-4.6875 3.0625 -4.6875 3.0625 -4 1 C-1 0 -1 0 0 0 Z " fill="#90CD48" transform="translate(226,351)"/>
<path d="M0 0 C0.66 0.33 1.32 0.66 2 1 C0.02 3.97 0.02 3.97 -2 7 C-2.99 6.34 -3.98 5.68 -5 5 C-5 4.01 -5 3.02 -5 2 C-2.625 0.9375 -2.625 0.9375 0 0 Z " fill="#F55944" transform="translate(402,345)"/>
<path d="M0 0 C0 3 0 3 -2.1875 6.1875 C-5 9 -5 9 -7.8125 9.375 C-8.534375 9.25125 -9.25625 9.1275 -10 9 C-7.86474649 6.8121864 -5.6425721 4.79086311 -3.3125 2.8125 C-2.68988281 2.28269531 -2.06726563 1.75289063 -1.42578125 1.20703125 C-0.95527344 0.80871094 -0.48476563 0.41039062 0 0 Z " fill="#D4E0D3" transform="translate(412,332)"/>
<path d="M0 0 C-0.33 0.66 -0.66 1.32 -1 2 C-3.28515625 2.4140625 -3.28515625 2.4140625 -6.0625 2.625 C-6.98160156 2.69976563 -7.90070313 2.77453125 -8.84765625 2.8515625 C-9.55792969 2.90054688 -10.26820313 2.94953125 -11 3 C-6.7849044 -0.23157329 -5.27490657 -1.24931998 0 0 Z " fill="#8DC64C" transform="translate(450,626)"/>
<path d="M0 0 C-1.44077046 3.36179774 -3.24750021 5.59156268 -6 8 C-6.66 8 -7.32 8 -8 8 C-6.48291727 4.46014029 -4.24676932 0 0 0 Z " fill="#80C23C" transform="translate(555,554)"/>
<path d="M0 0 C2.80045623 3.14591933 3.35261589 5.067064 3.1875 9.25 C3.16042969 10.14203125 3.13335937 11.0340625 3.10546875 11.953125 C3.07066406 12.62859375 3.03585938 13.3040625 3 14 C1.20724134 10.88089144 0.65709282 8.32317572 0.375 4.75 C0.30023438 3.85796875 0.22546875 2.9659375 0.1484375 2.046875 C0.09945312 1.37140625 0.05046875 0.6959375 0 0 Z " fill="#7ABD27" transform="translate(78,389)"/>
<path d="M0 0 C2.125 0.375 2.125 0.375 4 1 C4.33 2.98 4.66 4.96 5 7 C2.69 5.35 0.38 3.7 -2 2 C-1.34 1.34 -0.68 0.68 0 0 Z " fill="#2F7938" transform="translate(378,354)"/>
<path d="M0 0 C1.25 1.5625 1.25 1.5625 2 4 C0.93237266 6.57001015 -0.46544943 8.6530403 -2 11 C-2.95465783 8.83032311 -3.14401212 7.43671207 -2.3984375 5.17578125 C-1.64129615 3.4315257 -0.82390802 1.71372869 0 0 Z " fill="#FAA553" transform="translate(469,320)"/>
<path d="M0 0 C5.29158974 1.40071493 7.77478044 4.85487245 11 9 C8.03469503 7.64199529 5.70868729 6.07571737 3.25 3.9375 C2.63640625 3.41027344 2.0228125 2.88304687 1.390625 2.33984375 C0.93171875 1.89769531 0.4728125 1.45554688 0 1 C0 0.67 0 0.34 0 0 Z " fill="#75BA27" transform="translate(233,228)"/>
<path d="M0 0 C0.66 0.33 1.32 0.66 2 1 C1.01 1.33 0.02 1.66 -1 2 C-1 2.66 -1 3.32 -1 4 C-2.65 4 -4.3 4 -6 4 C-6.33 4.99 -6.66 5.98 -7 7 C-7.99 6.34 -8.98 5.68 -10 5 C-7 3 -7 3 -3 3 C-3 2.34 -3 1.68 -3 1 C-2.01 0.67 -1.02 0.34 0 0 Z " fill="#92CD55" transform="translate(470,593)"/>
<path d="M0 0 C-1.04874998 2.62187494 -1.64931313 3.79371361 -4.125 5.25 C-4.74375 5.4975 -5.3625 5.745 -6 6 C-6 5.34 -6 4.68 -6 4 C-6.66 3.67 -7.32 3.34 -8 3 C-2.25 0 -2.25 0 0 0 Z " fill="#47904B" transform="translate(538,408)"/>
<path d="M0 0 C0.91058531 3.07322544 1.08886184 5.80097361 1 9 C0.01 9.33 -0.98 9.66 -2 10 C-2.33 10.66 -2.66 11.32 -3 12 C-2.40075776 7.80530429 -1.42500059 3.99000166 0 0 Z " fill="#A1D06B" transform="translate(253,353)"/>
<path d="M0 0 C0.99 0.33 1.98 0.66 3 1 C1.1875 3.5 1.1875 3.5 -1 6 C-1.99 6 -2.98 6 -4 6 C-2.84826645 3.53199953 -1.95216435 1.95216435 0 0 Z " fill="#F65437" transform="translate(310,355)"/>
<path d="M0 0 C-0.66 0 -1.32 0 -2 0 C-2 0.99 -2 1.98 -2 3 C-3.32 3.33 -4.64 3.66 -6 4 C-6.99 2.68 -7.98 1.36 -9 0 C-3.375 -1.125 -3.375 -1.125 0 0 Z " fill="#E6D9D1" transform="translate(399,347)"/>
<path d="M0 0 C2.31 0.66 4.62 1.32 7 2 C6.01 2.495 6.01 2.495 5 3 C4.01 2.67 3.02 2.34 2 2 C1.67 2.99 1.34 3.98 1 5 C0.01 4.67 -0.98 4.34 -2 4 C-1.34 2.68 -0.68 1.36 0 0 Z " fill="#FCA247" transform="translate(477,304)"/>
<path d="M0 0 C0.66 0.99 1.32 1.98 2 3 C-3.75 8 -3.75 8 -6 8 C-4.55746343 4.63408134 -2.66735273 2.48952921 0 0 Z " fill="#AECCB0" transform="translate(579,245)"/>
<path d="M0 0 C0.33 0.66 0.66 1.32 1 2 C-3.14285714 8.42857143 -3.14285714 8.42857143 -6 11 C-6.66 10.67 -7.32 10.34 -8 10 C-5.36 6.7 -2.72 3.4 0 0 Z " fill="#C7DBC8" transform="translate(588,233)"/>
<path d="M0 0 C0.99 0.33 1.98 0.66 3 1 C1.35 2.98 -0.3 4.96 -2 7 C-2.66 6.34 -3.32 5.68 -4 5 C-2.68 3.35 -1.36 1.7 0 0 Z " fill="#85C33A" transform="translate(171,224)"/>
<path d="M0 0 C0.6875 1.625 0.6875 1.625 1 4 C-0.4375 7.25 -0.4375 7.25 -2 10 C-2.99 10 -3.98 10 -5 10 C-3.66511872 6.40608886 -2.03977277 3.24509304 0 0 Z " fill="#8CC740" transform="translate(394,92)"/>
<path d="M0 0 C1.32 0.66 2.64 1.32 4 2 C0.93882432 4.62386487 0.26826873 5 -4 5 C-4 4.34 -4 3.68 -4 3 C-2 1.375 -2 1.375 0 0 Z " fill="#E6EEE6" transform="translate(477,518)"/>
<path d="M0 0 C0.66 0.66 1.32 1.32 2 2 C0.35 4.97 -1.3 7.94 -3 11 C-4 7 -4 7 -3.22265625 5.078125 C-1.61132812 2.5390625 -1.61132812 2.5390625 0 0 Z " fill="#85C63E" transform="translate(596,493)"/>
<path d="M0 0 C3.375 -0.125 3.375 -0.125 7 0 C7.66 0.66 8.32 1.32 9 2 C7.3125 3.1875 7.3125 3.1875 5 4 C2.25 2.6875 2.25 2.6875 0 1 C0 0.67 0 0.34 0 0 Z " fill="#F4DED6" transform="translate(381,364)"/>
<path d="M0 0 C2.31 1.98 4.62 3.96 7 6 C5 7 5 7 1.875 6.0625 C0.92625 5.711875 -0.0225 5.36125 -1 5 C-0.34 4.67 0.32 4.34 1 4 C0.67 2.68 0.34 1.36 0 0 Z " fill="#FEDEC4" transform="translate(474,358)"/>
<path d="M0 0 C0.66 0.33 1.32 0.66 2 1 C2 1.66 2 2.32 2 3 C-1.13498292 4.85776765 -3.37471432 5.20140476 -7 5 C-2.25 1.125 -2.25 1.125 0 0 Z " fill="#F35A3E" transform="translate(364,360)"/>
<path d="M0 0 C0.66 0 1.32 0 2 0 C0.6062718 4.43458973 -1.60582235 6.87378374 -5 10 C-3.85569823 6.12697862 -2.76679902 2.99736561 0 0 Z " fill="#76B626" transform="translate(256,332)"/>
<path d="M0 0 C-3.42346555 3.14958831 -6.44262737 3.56179109 -11 4 C-7.26280719 0.48264206 -5.13496308 -0.47767098 0 0 Z " fill="#83C442" transform="translate(207,100)"/>
<path d="M0 0 C3.93673644 1.31224548 6.22719294 2.91910327 9 6 C5.21213403 5.4739075 2.82847776 4.61896089 0 2 C0 1.34 0 0.68 0 0 Z " fill="#8FC430" transform="translate(172,457)"/>
<path d="M0 0 C-1.32 1.32 -2.64 2.64 -4 4 C-4.99 3.67 -5.98 3.34 -7 3 C-6.67 2.01 -6.34 1.02 -6 0 C-3 -1 -3 -1 0 0 Z " fill="#72B526" transform="translate(492,430)"/>
<path d="M0 0 C0.86625 0.3403125 0.86625 0.3403125 1.75 0.6875 C0.35804085 3.4714183 -1.40575779 3.66648997 -4.25 4.6875 C-4.91 4.0275 -5.57 3.3675 -6.25 2.6875 C-2.80384615 -0.38942308 -2.80384615 -0.38942308 0 0 Z " fill="#478F4C" transform="translate(577.25,383.3125)"/>
<path d="M0 0 C0 0.66 0 1.32 0 2 C-2.78823655 3.0326802 -3.8677274 3.04509293 -6.75 2.0625 C-7.4925 1.711875 -8.235 1.36125 -9 1 C-5.64919071 -1.10976881 -3.77897651 -1.0497157 0 0 Z " fill="#E4E5DE" transform="translate(355,364)"/>
<path d="M0 0 C0.33 0 0.66 0 1 0 C1.25 3.3125 1.25 3.3125 1 7 C-0.32 7.99 -1.64 8.98 -3 10 C-2.01 6.7 -1.02 3.4 0 0 Z " fill="#99CE5C" transform="translate(65,247)"/>
<path d="M0 0 C0.66 0 1.32 0 2 0 C1.8125 1.8125 1.8125 1.8125 1 4 C-1.5625 5.75 -1.5625 5.75 -4 7 C-2.92598892 4.08482708 -2.22189824 2.22189824 0 0 Z " fill="#87C742" transform="translate(97,189)"/>
<path d="M0 0 C0.6875 1.8125 0.6875 1.8125 1 4 C-0.4375 5.75 -0.4375 5.75 -2 7 C-2.99 6.67 -3.98 6.34 -5 6 C-3.35 4.02 -1.7 2.04 0 0 Z " fill="#8ECA4B" transform="translate(350,66)"/>
<path d="M0 0 C0 0.66 0 1.32 0 2 C0.99 2.33 1.98 2.66 3 3 C1.741875 3.04125 0.48375 3.0825 -0.8125 3.125 C-1.52019531 3.14820313 -2.22789062 3.17140625 -2.95703125 3.1953125 C-5 3 -5 3 -8 1 C-2.25 0 -2.25 0 0 0 Z " fill="#9CC95E" transform="translate(286,637)"/>
<path d="M0 0 C2.31 0 4.62 0 7 0 C7 0.66 7 1.32 7 2 C7.99 2.33 8.98 2.66 10 3 C8 4 8 4 6.0546875 3.44140625 C5.33539063 3.15136719 4.61609375 2.86132812 3.875 2.5625 C3.15054688 2.27503906 2.42609375 1.98757813 1.6796875 1.69140625 C0.84824219 1.34916016 0.84824219 1.34916016 0 1 C0 0.67 0 0.34 0 0 Z " fill="#9ECE64" transform="translate(233,624)"/>
<path d="M0 0 C0.33 0 0.66 0 1 0 C1.25 5.625 1.25 5.625 -1 9 C-1.66 9 -2.32 9 -3 9 C-2.01 6.03 -1.02 3.06 0 0 Z " fill="#9AD163" transform="translate(604,449)"/>
<path d="M0 0 C1.00000429 4.00001715 0.80688405 6.05523353 0 10 C-0.99 10.33 -1.98 10.66 -3 11 C-2.01 7.37 -1.02 3.74 0 0 Z " fill="#62A266" transform="translate(536,446)"/>
<path d="M0 0 C0.33 0 0.66 0 1 0 C1.33 2.64 1.66 5.28 2 8 C-0.64 7.67 -3.28 7.34 -6 7 C-6 6.67 -6 6.34 -6 6 C-4.02 6 -2.04 6 0 6 C0 4.02 0 2.04 0 0 Z " fill="#C9E4AA" transform="translate(283,421)"/>
<path d="M0 0 C0.33 0 0.66 0 1 0 C1.92470553 4.71599818 2.22923777 7.67265609 0 12 C-0.33 12 -0.66 12 -1 12 C-1.14285714 3.42857143 -1.14285714 3.42857143 0 0 Z " fill="#F3694F" transform="translate(293,385)"/>
<path d="M0 0 C0.99 0.33 1.98 0.66 3 1 C2.67 1.99 2.34 2.98 2 4 C-0.31 4.33 -2.62 4.66 -5 5 C-3.35 3.35 -1.7 1.7 0 0 Z " fill="#458F4B" transform="translate(569,387)"/>
<path d="M0 0 C3.36720387 1.39332574 4.9859524 2.9789286 7 6 C4 6 4 6 1.8125 4.125 C0 2 0 2 0 0 Z " fill="#2B6933" transform="translate(389,348)"/>
<path d="M0 0 C4.31392226 0.4793247 6.16569547 1.7457985 9 5 C4.98525763 5 3.18024863 3.33218233 0 1 C0 0.67 0 0.34 0 0 Z " fill="#F73C20" transform="translate(413,349)"/>
<path d="M0 0 C0.33 0 0.66 0 1 0 C0.67 2.97 0.34 5.94 0 9 C-0.99 9 -1.98 9 -3 9 C-2.01 6.03 -1.02 3.06 0 0 Z " fill="#4D8353" transform="translate(563,232)"/>
<path d="M0 0 C1.04478472 3.39555034 1.30152754 6.45705143 1 10 C-0.515625 11.68359375 -0.515625 11.68359375 -2 13 C-1.85851011 11.3954444 -1.71164314 9.79136233 -1.5625 8.1875 C-1.48128906 7.29417969 -1.40007813 6.40085937 -1.31640625 5.48046875 C-1 3 -1 3 0 0 Z " fill="#ABD57A" transform="translate(618,406)"/>
<path d="M0 0 C2.39223697 2.39223697 2.6758631 3.67759676 3 7 C2.34 7.99 1.68 8.98 1 10 C-0.60725635 6.78548731 -0.05748185 3.56387464 0 0 Z " fill="#528D48" transform="translate(123,397)"/>
<path d="M0 0 C2.31 0 4.62 0 7 0 C7.66 1.32 8.32 2.64 9 4 C6.03 3.01 3.06 2.02 0 1 C0 0.67 0 0.34 0 0 Z " fill="#95C450" transform="translate(159,388)"/>
<path d="M0 0 C0.9075 0.391875 1.815 0.78375 2.75 1.1875 C-0.33809695 2.95212683 -1.48312136 3.1875 -5.25 3.1875 C-5.91 2.8575 -6.57 2.5275 -7.25 2.1875 C-4.52596974 -0.53653026 -3.86366821 -0.96591705 0 0 Z " fill="#D5D4C6" transform="translate(369.25,354.8125)"/>
<path d="M0 0 C1.65 0.99 3.3 1.98 5 3 C4.34 4.32 3.68 5.64 3 7 C0 2.25 0 2.25 0 0 Z " fill="#94C94D" transform="translate(224,314)"/>
<path d="M0 0 C2.64 0 5.28 0 8 0 C8.33 0.99 8.66 1.98 9 3 C4.545 2.01 4.545 2.01 0 1 C0 0.67 0 0.34 0 0 Z " fill="#8CC445" transform="translate(394,218)"/>
</svg>
